<?xml version="1.0" encoding="UTF-8"?>
<svg id="Layer_1" data-name="Layer 1" xmlns="http://www.w3.org/2000/svg" version="1.1" viewBox="0 0 1000 1000">
  <defs>
    <style>
      .cls-1 {
        fill: #178573;
        stroke-width: 0px;
      }
    </style>
  </defs>
  <path class="cls-1" d="M206.95,315.45c-2.28.1-4.4-.08-6.37-.52-1.97-.44-4.14-1.43-6.54-2.95l-1.15-.73,5.7-8.97,1.22.78c2.34,1.49,4.14,3.02,5.39,4.59,1.25,1.57,2.3,3.43,3.15,5.58l-1.41,2.22ZM208.53,315.35c-.61,2.23-1.43,4.21-2.47,5.94-1.03,1.73-2.66,3.5-4.89,5.3l-1.04.85-6.68-8.18,1.09-.92c2.15-1.79,4.15-3.04,6-3.74,1.86-.7,3.94-1.12,6.25-1.27l1.74,2.01ZM206.38,313.98c-.85-2.15-1.35-4.23-1.51-6.25-.16-2.02.11-4.38.83-7.08l.37-1.38,10.2,2.66-.3,1.42c-.68,2.66-1.57,4.83-2.68,6.51-1.1,1.68-2.55,3.3-4.34,4.84l-2.56-.72ZM208.88,313.85c1.96,1.25,3.6,2.63,4.92,4.14,1.32,1.51,2.51,3.61,3.55,6.29l.48,1.31-9.84,3.91-.57-1.47c-1.03-2.6-1.58-4.88-1.64-6.84-.07-1.96.16-4.08.68-6.37l2.43-.97ZM207.58,313.03c1.81-1.47,3.64-2.6,5.49-3.41,1.85-.8,4.2-1.27,7.04-1.41l1.39-.12.63,10.57-1.51.15c-2.76.12-5.11-.07-7.03-.59-1.92-.52-3.88-1.37-5.87-2.57l-.15-2.61Z"/>
  <path class="cls-1" d="M256.78,234l9.89-9.33,37.46,39.68-9.27,8.75-28.5-12.49,19.66,20.83-9.89,9.33-37.46-39.68,9.27-8.75,28.85,12.86-20.01-21.2Z"/>
  <path class="cls-1" d="M352.52,231.04l-12.53,8.17-27.77-27.65,13.89,36.71-12.25,7.99-18.06-53.37,15.17-9.89,41.55,38.05ZM334.47,220.48l5.76,8.83-22.86,14.9-5.76-8.83,22.86-14.9Z"/>
  <path class="cls-1" d="M342.79,175.02l13.49-5.63,21.03,50.36-13.49,5.63-21.03-50.36ZM376.51,185.17l4.09,9.8-14.12,5.9-4.09-9.8,14.12-5.9ZM366.17,165.26l13.49-5.63,21.03,50.36-13.49,5.63-21.03-50.36Z"/>
  <path class="cls-1" d="M403.04,152.74l14.41-3.7,13.56,52.86-14.41,3.7-13.56-52.86Z"/>
  <path class="cls-1" d="M441.98,143.8l14.79-1.63,5.98,54.24-14.79,1.63-5.98-54.24ZM467.03,163.96l-1.22-11.07c-.07-.62-.29-1.06-.66-1.34-.37-.27-.93-.37-1.66-.29l-15.55,1.71-1.07-9.72,20.02-2.21c4.51-.5,7.81.11,9.91,1.81,2.1,1.71,3.32,4.14,3.67,7.29l1.34,12.17-14.79,1.63ZM469.24,183.98l-2.33-21.12,14.79-1.63,2.45,22.22c.35,3.15-.32,5.79-1.99,7.92-1.68,2.12-4.77,3.43-9.27,3.93l-20.02,2.21-1.07-9.72,15.55-1.72c.73-.08,1.25-.29,1.55-.64.3-.35.42-.83.35-1.45Z"/>
  <path class="cls-1" d="M537.11,140.95l14.44,2.29-8.55,53.9-14.44-2.29,8.55-53.9ZM560.47,167.29l-1.67,10.49-15.11-2.4,1.66-10.49,15.11,2.4ZM562.13,144.92l14.44,2.29-8.55,53.9-14.44-2.29,8.55-53.9Z"/>
  <path class="cls-1" d="M623.82,219.33l-14.1-4.99,5.1-38.86-20.72,33.33-13.78-4.88,31.43-46.76,17.07,6.04-4.99,56.12ZM621.25,198.59l-3.52,9.94-25.72-9.1,3.52-9.94,25.72,9.1Z"/>
  <path class="cls-1" d="M659.54,224.48l3.81-6.73c.31-.54.39-1.03.25-1.47-.14-.44-.54-.84-1.17-1.2l-7.1-4.02c-3.85-2.18-5.98-4.52-6.41-7.05-.43-2.52.14-5.16,1.7-7.92l5.53-9.77c1.56-2.76,3.63-4.52,6.21-5.28,2.58-.75,5.84-.02,9.78,2.22l10.13,5.73c3.94,2.23,6.26,4.65,6.94,7.25.68,2.6.24,5.28-1.33,8.04l-3.22,5.7-12.95-7.33,2.26-3.99c.31-.54.39-1.03.25-1.47-.14-.44-.54-.84-1.17-1.2l-2.15-1.21c-.64-.36-1.19-.49-1.64-.39-.45.1-.83.43-1.13.97l-3.98,7.03c-.31.54-.39,1.03-.25,1.47.14.44.53.84,1.18,1.2l6.95,3.94c3.85,2.18,6.04,4.49,6.57,6.94.53,2.45.02,5.06-1.54,7.82l-5.53,9.77c-1.56,2.76-3.63,4.52-6.21,5.28-2.58.76-5.84.02-9.78-2.21l-10.06-5.69c-3.95-2.23-6.27-4.65-6.97-7.27-.7-2.61-.27-5.3,1.29-8.06l3.22-5.7,12.95,7.33-2.26,3.99c-.31.54-.39,1.03-.25,1.47.14.44.53.84,1.18,1.2l2.15,1.21c.64.36,1.19.49,1.64.39.45-.1.83-.43,1.13-.97Z"/>
  <path class="cls-1" d="M712.01,278.41l-11.55-9.51,18.06-34.79-30.86,24.25-11.29-9.29,45.5-33.23,13.98,11.5-23.85,51.05ZM716.68,258.03l-6.7,8.14-21.07-17.34,6.7-8.14,21.07,17.34Z"/>
  <path class="cls-1" d="M778.52,271.22l8.8,10.37-41.6,35.31-8.25-9.72,13.97-27.8-21.84,18.54-8.8-10.37,41.6-35.31,8.25,9.72-14.36,28.13,22.23-18.87Z"/>
  <path class="cls-1" d="M810.97,349.26c-2.09,1.02-4.12,1.7-6.1,2.04-1.98.34-4.39.25-7.22-.25l-1.37-.28,1.8-10.44,1.56.28c2.76.48,4.99,1.2,6.69,2.17,1.7.96,3.39,2.27,5.08,3.9l-.44,2.58ZM812.35,348.59c.31,2.31.32,4.46.04,6.46-.28,2-1.11,4.25-2.47,6.75l-.62,1.25-9.35-4.98.66-1.36c1.34-2.42,2.73-4.32,4.17-5.69,1.44-1.37,3.2-2.59,5.26-3.66l2.31,1.24ZM809.88,348.19c-1.58-1.69-2.84-3.42-3.78-5.2-.94-1.78-1.59-4.09-1.97-6.94l-.18-1.33,10.47-1.43.22,1.41c.41,2.77.43,5.12.05,7.07-.37,1.95-1.1,3.94-2.18,5.99l-2.63.43ZM812.17,347.07c2.28.4,4.32,1.06,6.12,1.97,1.8.92,3.67,2.38,5.61,4.4l.98,1.03-7.59,7.31-1.06-1c-1.91-1.97-3.29-3.86-4.15-5.68-.86-1.82-1.48-3.9-1.87-6.23l1.95-1.81ZM810.61,346.79c1.11-1.99,2.36-3.71,3.77-5.16,1.41-1.45,3.38-2.79,5.93-4.04l1.22-.6,4.67,9.54-1.3.64c-2.49,1.22-4.74,1.96-6.73,2.21-1.99.25-4.13.17-6.4-.23l-1.16-2.37Z"/>
  <path class="cls-1" d="M848.61,407.07l3.21,14.53-53.29,11.76-3.21-14.53,53.29-11.76ZM831.83,441.85l-9.54,2.11-5.15-23.32,9.54-2.11,5.15,23.32ZM855.67,439.02l-10.38,2.29-5.92-26.81,10.38-2.29,5.92,26.81Z"/>
  <path class="cls-1" d="M859.67,476.73l-42.02,2.23c-.62.03-1.08.23-1.37.58s-.42.9-.38,1.64l.15,2.8-10.61.56-.39-7.3c-.24-4.53.55-7.79,2.37-9.79,1.82-2,4.32-3.08,7.49-3.25l43.97-2.33.79,14.85ZM818.06,486.77l42.02-2.23.79,14.85-43.97,2.33c-3.17.17-5.77-.64-7.79-2.44-2.03-1.79-3.16-4.95-3.4-9.48l-.39-7.3,10.61-.56.15,2.8c.04.73.22,1.27.55,1.59.33.32.8.47,1.43.44Z"/>
  <path class="cls-1" d="M805.07,523.5l10.57,1.12-2.84,26.71-10.57-1.12,2.84-26.71ZM859.85,524.37l-1.57,14.79-54.26-5.77,1.57-14.79,54.26,5.77Z"/>
  <path class="cls-1" d="M798.42,567.77l10.29,2.66-6.72,26.01-10.29-2.66,6.72-26ZM852.49,576.66l-3.72,14.4-52.83-13.65,3.72-14.4,52.83,13.65Z"/>
  <path class="cls-1" d="M777.76,655.62l6.79,3.71c.55.3,1.04.38,1.48.23.44-.15.83-.55,1.18-1.19l3.92-7.16c2.12-3.88,4.44-6.05,6.96-6.51,2.51-.46,5.16.06,7.95,1.59l9.84,5.39c2.78,1.52,4.57,3.57,5.36,6.13.79,2.56.1,5.83-2.08,9.81l-5.59,10.22c-2.18,3.98-4.56,6.32-7.15,7.04-2.59.71-5.27.31-8.06-1.21l-5.74-3.14,7.14-13.05,4.03,2.2c.55.3,1.04.37,1.48.23.44-.15.83-.55,1.19-1.19l1.18-2.16c.35-.65.47-1.19.37-1.64-.11-.45-.44-.82-.99-1.12l-7.08-3.88c-.55-.3-1.04-.38-1.48-.23-.44.15-.83.55-1.18,1.19l-3.84,7.01c-2.12,3.88-4.4,6.1-6.85,6.67-2.44.57-5.06.09-7.84-1.43l-9.84-5.39c-2.78-1.52-4.57-3.57-5.36-6.13-.79-2.57-.1-5.84,2.08-9.81l5.55-10.14c2.18-3.98,4.57-6.34,7.17-7.08,2.6-.74,5.29-.35,8.08,1.17l5.74,3.14-7.14,13.05-4.03-2.2c-.55-.3-1.04-.38-1.47-.23-.44.15-.83.55-1.19,1.19l-1.18,2.16c-.35.64-.48,1.19-.37,1.64.11.45.44.82.99,1.12Z"/>
  <path class="cls-1" d="M785.46,711.68l-9.12,11.75-39.09-30.32,9.12-11.75,39.09,30.32ZM773.92,734.88l-8.4-6.51,21.98-28.34,8.4,6.51-21.98,28.34Z"/>
  <path class="cls-1" d="M690.53,740.33l10.99-10.15,32.01,22.62-19.83-33.87,10.74-9.92,26.73,49.6-13.3,12.29-47.33-30.56ZM710.09,747.72l-7.15-7.74,20.04-18.52,7.15,7.74-20.04,18.52Z"/>
  <path class="cls-1" d="M668.25,769.29l4.56,7.08-12.51,8.05-5.15-8c-1.72-2.67-2.3-5.33-1.75-7.97.55-2.65,2.74-5.2,6.55-7.65l5.65-3.63,5.29,8.22-1.86,1.2c-.62.4-.99.82-1.1,1.27-.12.45,0,.93.33,1.46ZM691.26,791.67l-16.93-26.3c-.34-.52-.73-.83-1.19-.9-.46-.08-.99.08-1.61.48l-1.86,1.2-5.29-8.22,5.65-3.64c3.81-2.46,7.04-3.39,9.68-2.79,2.64.59,4.82,2.22,6.54,4.89l18.13,28.16c1.72,2.67,2.3,5.33,1.75,7.97-.55,2.65-2.73,5.2-6.55,7.65l-5.65,3.63-5.29-8.22,1.86-1.2c.62-.4.99-.82,1.11-1.27.12-.45,0-.93-.33-1.46ZM680.44,788.22l4.74,7.36c.34.52.73.83,1.19.9.46.08.99-.08,1.61-.48l1.86-1.2,5.29,8.22-5.65,3.64c-3.81,2.45-7.04,3.38-9.68,2.79-2.64-.59-4.82-2.22-6.54-4.89l-5.34-8.29,12.51-8.05Z"/>
  <path class="cls-1" d="M633.36,806l-14.25,6.01-20.7-21.53,14.73-6.21,20.23,21.73ZM619.1,812.01l14.25-6.01,1.05,28.52-14.73,6.21-.58-28.72ZM657.51,824.79l-13.71,5.78-21.2-50.29,13.71-5.78,21.2,50.29Z"/>
  <path class="cls-1" d="M512.76,860.71l-14.65,1.32,6.62-55.39,17.02-1.53,8.93,31.88,3.09-32.97,17.02-1.53,16.41,53.31-15.41,1.39-7.86-36.16-3.99,37.23-14.48,1.3-10.57-35.92-2.13,37.06Z"/>
  <path class="cls-1" d="M441.26,856.02l1.22-10.55,27.27,3.16-1.22,10.55-27.27-3.16ZM445.55,812.28l1.22-10.55,28.03,3.24-1.22,10.55-28.03-3.24ZM446.21,834.69l1.22-10.55,23.73,2.75-1.22,10.55-23.73-2.75ZM473.77,859.78l-14.78-1.71,6.27-54.21,14.78,1.71-6.27,54.21Z"/>
  <path class="cls-1" d="M417.81,851.45l-24.01-6.92c-4.36-1.26-7.18-3.07-8.47-5.45-1.29-2.38-1.5-5.09-.62-8.14l1.93-6.7c.61-2.12,1.41-3.9,2.38-5.33.97-1.43,2.37-2.35,4.2-2.77-1.37-1.16-2.12-2.53-2.23-4.09-.11-1.57.13-3.38.73-5.45l2.26-7.84c.88-3.05,2.5-5.24,4.85-6.56,2.36-1.33,5.72-1.36,10.07-.1l24.01,6.92-15.12,52.43ZM401.51,825.43l-2.45,8.49c-.17.6-.14,1.09.1,1.49.24.39.72.69,1.42.9l5.88,1.7,3.48-12.09-5.88-1.7c-.71-.2-1.27-.2-1.68,0-.41.2-.71.61-.88,1.21ZM407.73,803.87l-2.47,8.58c-.17.6-.14,1.1.1,1.49.24.39.72.69,1.42.9l5.88,1.7,3.51-12.17-5.88-1.7c-.71-.2-1.27-.2-1.68,0-.41.2-.71.61-.88,1.21Z"/>
  <path class="cls-1" d="M320.81,786.21l-5.79,9.51c-.32.53-.42,1.02-.29,1.46.13.44.51.86,1.14,1.24l13.36,8.14-5.08,8.35-17.21-10.48c-3.87-2.36-6.12-4.85-6.74-7.49-.62-2.63-.1-5.3,1.55-8.01l6.37-10.45,12.7,7.74ZM331.28,769l-11.05,18.15-12.7-7.74,11.63-19.09c1.65-2.71,3.79-4.4,6.41-5.05,2.62-.66,5.87.19,9.74,2.55l17.21,10.48-5.08,8.35-13.36-8.13c-.63-.38-1.17-.53-1.62-.44-.45.09-.84.4-1.17.93ZM328.34,817.47l-12.7-7.74,28.39-46.61,12.7,7.74-28.38,46.61Z"/>
  <path class="cls-1" d="M251.48,761.54l6.95-8.04,20.77,17.96-6.95,8.04-20.77-17.96ZM276.23,782.95l-11.25-9.73,35.69-41.28,11.25,9.73-35.69,41.28ZM267.57,746.69l6.95-8.04,18.07,15.62-6.95,8.04-18.07-15.62ZM279.64,727.8l6.95-8.04,21.35,18.46-6.95,8.04-21.35-18.46Z"/>
  <path class="cls-1" d="M218.14,724.68l-9.87-11.91,50.59-24.47,11.01,13.29-33.46,45.15-9.87-11.91,23.91-28.3-32.31,18.15Z"/>
  <path class="cls-1" d="M179.45,665.71l9.19-5.33,13.76,23.75-9.19,5.33-13.76-23.75ZM195.85,694.02l-7.46-12.87,47.22-27.36,7.46,12.87-47.22,27.36ZM199.51,656.93l9.19-5.33,11.97,20.67-9.19,5.33-11.97-20.67ZM217.09,643.01l9.19-5.33,14.15,24.42-9.19,5.33-14.15-24.42Z"/>
  <path class="cls-1" d="M169.51,644.6l-5.42-13.85,50.81-19.9,5.42,13.85-50.81,19.9ZM218.52,620.11l-9.89,3.87-9.8-25.01,9.89-3.88,9.8,25.01Z"/>
  <path class="cls-1" d="M169.14,567.56l-10.05,2.17c-.61.13-1.03.4-1.26.79-.23.4-.27.96-.12,1.68l.59,2.74-10.39,2.24-1.54-7.15c-.95-4.43-.69-7.78.79-10.04,1.48-2.26,3.78-3.73,6.88-4.39l11.97-2.58,3.13,14.54ZM160.73,577.37l10.05-2.17,3.13,14.54-11.97,2.58c-3.1.67-5.79.28-8.08-1.17-2.28-1.45-3.9-4.39-4.86-8.82l-1.54-7.15,10.39-2.24.59,2.74c.16.72.42,1.21.8,1.48.38.27.87.33,1.48.2ZM188,563.5l-19.94,4.29-3.13-14.54,21.85-4.71c3.1-.67,5.8-.28,8.08,1.17,2.28,1.45,3.9,4.39,4.86,8.82l1.54,7.15-10.39,2.24-.59-2.74c-.16-.72-.42-1.21-.8-1.48-.38-.27-.87-.33-1.48-.2ZM169.71,575.44l19.94-4.29c.61-.13,1.03-.4,1.26-.79.23-.4.27-.96.12-1.68l-.59-2.74,10.39-2.24,1.54,7.15c.95,4.43.69,7.78-.79,10.04-1.48,2.26-3.78,3.73-6.88,4.39l-21.85,4.71-3.13-14.54Z"/>
  <path class="cls-1" d="M163.92,508.91l-11.72.47c-.62.02-1.08.21-1.38.57-.3.35-.43.9-.4,1.63l.64,15.8-10.62.43-.82-20.3c-.18-4.53.65-7.78,2.5-9.76,1.85-1.97,4.36-3.03,7.53-3.15l15.63-.63c3.17-.13,5.76.72,7.76,2.54,2,1.82,3.09,4.99,3.28,9.52l.82,20.3-10.62.43-.64-15.8c-.03-.73-.21-1.27-.53-1.59-.32-.33-.8-.48-1.42-.45ZM140.64,532.73l-.6-14.86,54.53-2.2.6,14.86-54.53,2.2Z"/>
  <path class="cls-1" d="M140.37,471.68l1.8-14.77,54.17,6.59-1.8,14.77-54.17-6.59ZM144.32,439.19l10.55,1.28-3.31,27.25-10.55-1.28,3.31-27.25ZM165.63,444.26l10.55,1.28-2.88,23.71-10.55-1.28,2.88-23.71ZM188.04,443.74l10.55,1.28-3.41,28.01-10.55-1.28,3.41-28.01Z"/>
  <path class="cls-1" d="M149.03,415.79l4.2-14.27,52.35,15.41-4.2,14.27-52.35-15.41ZM177.75,400.41l-10.27-3.02c-.6-.18-1.09-.15-1.49.09-.39.24-.7.71-.9,1.42l-4.46,15.17-10.19-3,5.74-19.49c1.28-4.35,3.11-7.16,5.5-8.44,2.38-1.28,5.1-1.47,8.14-.57l13.54,3.98c3.05.9,5.22,2.53,6.54,4.89,1.31,2.37,1.33,5.72.05,10.07l-5.74,19.49-9.7-2.86,4.46-15.17c.21-.71.21-1.27,0-1.68-.2-.41-.6-.71-1.2-.89ZM180.8,411.41l4.1-13.94,27.9-5.08-4.51,15.33-27.49,3.69Z"/>
</svg>