<?xml version="1.0" encoding="UTF-8"?>
<svg xmlns="http://www.w3.org/2000/svg" version="1.1" viewBox="0 0 500 500">
  <defs>
    <style>
      .cls-1, .cls-2, .cls-3, .cls-4, .cls-5, .cls-6, .cls-7, .cls-8, .cls-9, .cls-10, .cls-11, .cls-12, .cls-13, .cls-14, .cls-15, .cls-16, .cls-17, .cls-18, .cls-19, .cls-20, .cls-21, .cls-22, .cls-23, .cls-24, .cls-25, .cls-26, .cls-27 {
        stroke-width: 0px;
      }

      .cls-1, .cls-4, .cls-9, .cls-15, .cls-16, .cls-24, .cls-26, .cls-27 {
        fill: #000;
      }

      .cls-1, .cls-7, .cls-28, .cls-14 {
        opacity: .6;
      }

      .cls-2, .cls-11 {
        fill: #263238;
      }

      .cls-29 {
        opacity: .7;
      }

      .cls-3 {
        fill: #455a64;
      }

      .cls-5, .cls-7, .cls-19, .cls-22, .cls-23 {
        fill: #fff;
      }

      .cls-5, .cls-30 {
        opacity: .8;
      }

      .cls-6 {
        fill: #ffa8a7;
      }

      .cls-31, .cls-15, .cls-23 {
        opacity: .5;
      }

      .cls-32, .cls-11 {
        opacity: .9;
      }

      .cls-8 {
        fill: #f28f8f;
      }

      .cls-9 {
        opacity: .15;
      }

      .cls-10, .cls-14, .cls-21 {
        fill: #27debf;
      }

      .cls-12 {
        fill: #f5f5f5;
      }

      .cls-33, .cls-16 {
        opacity: .4;
      }

      .cls-34 {
        stroke-width: 1.21px;
      }

      .cls-34, .cls-35 {
        fill: none;
        stroke: #263238;
        stroke-miterlimit: 10;
      }

      .cls-36, .cls-26 {
        opacity: .3;
      }

      .cls-13 {
        fill: #e6e6e6;
      }

      .cls-17 {
        fill: #ebebeb;
      }

      .cls-18 {
        fill: #e0e0e0;
      }

      .cls-35 {
        stroke-width: 1.03px;
      }

      .cls-20 {
        fill: #fafafa;
      }

      .cls-21, .cls-24 {
        opacity: .1;
      }

      .cls-22 {
        opacity: .75;
      }

      .cls-25 {
        fill: #37474f;
      }

      .cls-37 {
        opacity: .25;
      }

      .cls-27 {
        opacity: .2;
      }
    </style>
  </defs>
  <g id="Floor">
    <path id="Floor-2" data-name="Floor" class="cls-12" d="M408.41,274.57c87.57,48.48,87.56,127.09,0,175.57-87.57,48.48-229.54,48.48-317.1,0-87.57-48.48-87.57-127.09,0-175.57,87.57-48.48,229.54-48.48,317.1,0Z"/>
  </g>
  <g id="Shadows">
    <path id="Shadow" class="cls-13" d="M451.69,343.15l-124.99,72.2c-.93.54-2.43.54-3.36,0l-180.22-104.05c-.93-.54-.93-1.4,0-1.94l124.99-72.2c.93-.54,2.43-.54,3.36,0l180.22,104.05c.93.54.93,1.4,0,1.94Z"/>
    <path id="Shadow-2" data-name="Shadow" class="cls-13" d="M214.32,443.05c29.32-16.93,29.32-44.38,0-61.3-29.32-16.93-76.86-16.93-106.18,0-29.32,16.93-29.32,44.38,0,61.3,29.32,16.93,76.86,16.93,106.18,0Z"/>
    <path id="Shadow-3" data-name="Shadow" class="cls-13" d="M294.44,386.26c23.08-13.33,23.08-34.93,0-48.25-23.08-13.33-60.5-13.32-83.58,0-23.08,13.33-23.08,34.93,0,48.25,23.08,13.33,60.5,13.33,83.58,0Z"/>
    <path id="Shadow-4" data-name="Shadow" class="cls-13" d="M410.32,423.01c14.49-8.36,14.49-21.93,0-30.29-14.49-8.36-37.98-8.36-52.46,0-14.49,8.36-14.49,21.93,0,30.29,14.49,8.36,37.98,8.36,52.46,0Z"/>
  </g>
  <g id="Desk">
    <g id="Desk-2" data-name="Desk">
      <g id="Table">
        <g>
          <path class="cls-25" d="M329.42,286.36v110.94c0,.71-.5,1.58-1.12,1.94l-2.38,1.37c-.62.36-1.62.36-2.24,0l-2.38-1.37c-.62-.36-1.12-1.23-1.12-1.94v-110.94c0-.71.5-1,1.12-.65l2.38,1.37c.62.36,1.62.36,2.24,0l2.38-1.37c.62-.36,1.12-.07,1.12.65Z"/>
          <path class="cls-3" d="M323.68,400.62l-2.38-1.37c-.62-.36-1.12-1.23-1.12-1.94v-110.94c0-.71.5-1,1.12-.65l2.38,1.37c.62.36,1.12,1.22,1.12,1.94v110.94c0,.71-.5,1-1.12.65Z"/>
        </g>
        <g>
          <path class="cls-25" d="M430.93,227.72v110.94c0,.71-.5,1.58-1.12,1.94l-2.38,1.37c-.62.36-1.62.36-2.24,0l-2.38-1.37c-.62-.36-1.12-1.22-1.12-1.94v-110.94c0-.71.5-1,1.12-.65l2.38,1.37c.62.36,1.62.36,2.24,0l2.38-1.37c.62-.36,1.12-.07,1.12.65Z"/>
          <path class="cls-3" d="M425.19,341.98l-2.38-1.37c-.62-.36-1.12-1.22-1.12-1.94v-110.94c0-.71.5-1,1.12-.65l2.38,1.37c.62.36,1.12,1.23,1.12,1.94v110.94c0,.71-.5,1-1.12.65Z"/>
        </g>
        <g>
          <path class="cls-25" d="M192.71,207.47v110.94c0,.71-.5,1.58-1.12,1.94l-2.38,1.37c-.62.36-1.62.36-2.24,0l-2.38-1.37c-.62-.36-1.12-1.23-1.12-1.94v-110.94c0-.71.5-1,1.12-.65l2.38,1.37c.62.36,1.62.36,2.24,0l2.38-1.37c.62-.36,1.12-.07,1.12.65Z"/>
          <path class="cls-3" d="M186.97,321.73l-2.38-1.37c-.62-.36-1.12-1.23-1.12-1.94v-110.94c0-.71.5-1,1.12-.65l2.38,1.37c.62.36,1.12,1.22,1.12,1.94v110.94c0,.71-.5,1-1.12.65Z"/>
        </g>
        <g>
          <g>
            <path class="cls-10" d="M453.02,235.61v-.81c0-1.3-.91-2.88-2.04-3.53l-179.02-103.25c-1.13-.65-2.95-.65-4.08,0l-110.13,63.6c-1.13.65-2.04,2.23-2.04,3.53v.81c0,1.3.91,2.88,2.04,3.53l179.02,103.25c1.13.65,2.95.65,4.08,0l110.13-63.6c1.13-.65,2.04-2.23,2.04-3.53Z"/>
            <path class="cls-1" d="M453.02,235.61v-.81c0-1.3-.91-2.88-2.04-3.53l-179.02-103.25c-1.13-.65-2.95-.65-4.08,0l-110.13,63.6c-1.13.65-2.04,2.23-2.04,3.53v.81c0,1.3.91,2.88,2.04,3.53l179.02,103.25c1.13.65,2.95.65,4.08,0l110.13-63.6c1.13-.65,2.04-2.23,2.04-3.53Z"/>
          </g>
          <g>
            <path class="cls-10" d="M338.82,297.72v5.52c.74,0,1.47-.17,2.04-.49l110.12-63.61c1.13-.66,2.04-2.23,2.04-3.53v-.82c0-1.15-.71-2.53-1.66-3.26.74.63.61,1.51-.38,2.09l-110.12,63.61c-.56.33-1.3.49-2.04.49Z"/>
            <path class="cls-15" d="M338.82,297.72v5.52c.74,0,1.47-.17,2.04-.49l110.12-63.61c1.13-.66,2.04-2.23,2.04-3.53v-.82c0-1.15-.71-2.53-1.66-3.26.74.63.61,1.51-.38,2.09l-110.12,63.61c-.56.33-1.3.49-2.04.49Z"/>
          </g>
          <g>
            <path class="cls-10" d="M450.98,233.62l-110.13,63.6c-1.13.65-2.95.65-4.08,0l-179.02-103.25c-1.13-.65-1.13-1.7,0-2.35l110.13-63.6c1.13-.65,2.95-.65,4.08,0l179.02,103.25c1.13.65,1.13,1.7,0,2.35Z"/>
            <path class="cls-16" d="M450.98,233.62l-110.13,63.6c-1.13.65-2.95.65-4.08,0l-179.02-103.25c-1.13-.65-1.13-1.7,0-2.35l110.13-63.6c1.13-.65,2.95-.65,4.08,0l179.02,103.25c1.13.65,1.13,1.7,0,2.35Z"/>
          </g>
        </g>
      </g>
      <g id="Keyboard">
        <path id="Shadow-5" data-name="Shadow" class="cls-9" d="M325.29,232.24l-26.09,15.11c-.81.47-2.12.47-2.92,0l-77.08-44.44c-.81-.47-.81-1.22,0-1.69l26.09-15.11c.81-.47,2.12-.47,2.92,0l77.08,44.44c.81.47.81,1.22,0,1.69Z"/>
        <g id="Keyboard-2" data-name="Keyboard">
          <g>
            <path class="cls-2" d="M220.77,198.53c0-.31.2-.61.61-.84l24.51-14.15c.81-.47,2.12-.47,2.92,0l74.8,43.25c.4.23.6.54.6.84,0,.31,0,2.27,0,2.57,0,.31-.2.61-.61.84l-24.5,14.15c-.81.46-2.12.46-2.93,0l-74.8-43.19c-.4-.23-.6-.54-.61-.84,0-.31,0-2.33,0-2.64Z"/>
            <path class="cls-25" d="M299.11,242.57l24.5-14.08c.81-.46.81-1.22,0-1.69l-74.8-43.25c-.81-.47-2.12-.47-2.92,0l-24.51,14.15c-.81.47-.81,1.22,0,1.69l74.8,43.19c.81.47,2.12.47,2.93,0Z"/>
            <path class="cls-2" d="M297.74,242.91v2.63c.5-.01.99-.12,1.37-.34l24.49-14.15c.4-.24.61-.54.61-.84v-2.58c0,.3-.2.61-.61.84l-24.49,14.09c-.38.21-.88.33-1.37.34Z"/>
          </g>
          <path class="cls-10" d="M225.31,198.72s.01-.03.02-.03l2.43-1.4,3.29,1.9-2.44,1.45-3.29-1.9v-.02ZM229.11,196.53s.01-.03.02-.03l2.43-1.4,2.59,1.49-2.44,1.45-2.58-1.49v-.02ZM229.91,201.38s.01-.03.02-.03l2.43-1.4,2.58,1.49-2.44,1.45-2.58-1.49v-.02ZM232.91,194.34s.01-.03.02-.03l2.43-1.4,4.18,2.41-2.44,1.45-4.17-2.41v-.02ZM233,198.78s.01-.03.02-.03l2.43-1.4,2.05,1.19-2.44,1.45-2.05-1.18v-.02ZM233.8,203.62s.01-.03.02-.03l2.43-1.4,2.59,1.49-2.44,1.45-2.58-1.49v-.02ZM236.36,200.72s.01-.03.02-.03l2.43-1.4,2.05,1.19-2.44,1.45-2.05-1.18v-.02ZM236.7,192.14s.01-.03.02-.03l2.43-1.4,3.29,1.9-2.44,1.45-3.29-1.9v-.02ZM237.69,205.87s.01-.03.02-.03l2.43-1.4,18.68,10.78-2.44,1.45-18.67-10.78v-.02ZM238.39,197.5s.01-.03.02-.03l2.43-1.4,2.05,1.19-2.44,1.45-2.05-1.18v-.02ZM239.72,202.66s.01-.03.02-.03l2.43-1.4,2.05,1.19-2.44,1.45-2.05-1.18v-.02ZM240.5,189.95s.01-.03.02-.03l2.43-1.4,2.05,1.19-2.44,1.45-2.05-1.18v-.02ZM241.3,194.8s.01-.03.02-.03l2.43-1.4,2.05,1.19-2.44,1.45-2.05-1.18v-.02ZM241.75,199.44s.01-.03.02-.03l2.43-1.4,2.05,1.19-2.44,1.45-2.05-1.18v-.02ZM243.08,204.6s.01-.03.02-.03l2.43-1.4,2.05,1.19-2.44,1.45-2.05-1.18v-.02ZM243.86,191.89s.01-.03.02-.03l2.43-1.4,2.05,1.19-2.44,1.45-2.05-1.18v-.02ZM244.66,196.74s.01-.03.02-.03l2.43-1.4,2.05,1.19-2.44,1.45-2.05-1.18v-.02ZM245.11,201.38s.01-.03.02-.03l2.43-1.4,2.05,1.19-2.44,1.45-2.05-1.18v-.02ZM245.11,187.29s.01-.03.02-.03l2.43-1.4,2.58,1.49-2.44,1.45-2.58-1.49v-.02ZM246.44,206.54s.01-.03.02-.03l2.43-1.4,2.05,1.19-2.44,1.45-2.05-1.18v-.02ZM247.22,193.83s.01-.03.02-.03l2.43-1.4,2.05,1.19-2.44,1.45-2.05-1.18v-.02ZM248.02,198.68s.01-.03.02-.03l2.43-1.4,2.05,1.19-2.44,1.45-2.05-1.18v-.02ZM248.47,203.32s.01-.03.02-.03l2.43-1.4,2.05,1.19-2.44,1.45-2.05-1.18v-.02ZM249.8,208.48s.01-.03.02-.03l2.43-1.4,2.05,1.19-2.44,1.45-2.05-1.18v-.02ZM250.46,190.38s.01-.03.02-.03l2.43-1.4,2.05,1.19-2.44,1.45-2.05-1.18v-.02ZM250.58,195.77s.01-.03.02-.03l2.43-1.4,2.05,1.19-2.44,1.45-2.05-1.18v-.02ZM251.38,200.62s.01-.03.02-.03l2.43-1.4,2.05,1.19-2.44,1.45-2.05-1.18v-.02ZM251.83,205.26s.01-.03.02-.03l2.43-1.4,2.05,1.19-2.44,1.45-2.05-1.18v-.02ZM253.16,210.42s.01-.03.02-.03l2.43-1.4,2.05,1.19-2.44,1.45-2.05-1.18v-.02ZM253.82,192.32s.01-.03.02-.03l2.43-1.4,2.05,1.19-2.44,1.45-2.05-1.18v-.02ZM253.94,197.71s.01-.03.02-.03l2.43-1.4,2.05,1.19-2.44,1.45-2.05-1.18v-.02ZM254.74,202.56s.01-.03.02-.03l2.43-1.4,2.05,1.19-2.44,1.45-2.05-1.18v-.02ZM255.19,207.2s.01-.03.02-.03l2.43-1.4,2.05,1.19-2.44,1.45-2.05-1.18v-.02ZM256.52,212.36s.01-.03.02-.03l2.43-1.4,2.05,1.19-2.44,1.45-2.05-1.18v-.02ZM257.18,194.26s.01-.03.02-.03l2.43-1.4,2.05,1.19-2.44,1.45-2.05-1.18v-.02ZM257.3,199.65s.01-.03.02-.03l2.43-1.4,2.05,1.19-2.44,1.45-2.05-1.18v-.02ZM257.67,217.41s.01-.03.02-.03l2.43-1.4,2.58,1.49-2.44,1.45-2.58-1.49v-.02ZM258.1,204.5s.01-.03.02-.03l2.43-1.4,2.05,1.19-2.44,1.45-2.05-1.18v-.02ZM258.55,209.14s.01-.03.02-.03l2.43-1.4,2.05,1.19-2.44,1.45-2.05-1.18v-.02ZM259.88,214.3s.01-.03.02-.03l2.43-1.4,2.05,1.19-2.44,1.45-2.05-1.18v-.02ZM260.54,196.2s.01-.03.02-.03l2.43-1.4,2.05,1.19-2.44,1.45-2.05-1.18v-.02ZM260.66,201.59s.01-.03.02-.03l2.43-1.4,2.05,1.19-2.44,1.45-2.05-1.18v-.02ZM261.46,206.44s.01-.03.02-.03l2.43-1.4,2.05,1.19-2.44,1.45-2.05-1.18v-.02ZM261.56,219.65s.01-.03.02-.03l2.43-1.4,2.58,1.49-2.44,1.45-2.58-1.49v-.02ZM261.91,211.08s.01-.03.02-.03l2.43-1.4,2.05,1.19-2.44,1.45-2.05-1.18v-.02ZM263.24,216.24s.01-.03.02-.03l2.43-1.4,2.05,1.19-2.44,1.45-2.05-1.18v-.02ZM264.02,203.53s.01-.03.02-.03l2.43-1.4,2.05,1.19-2.44,1.45-2.05-1.18v-.02ZM264.82,208.38s.01-.03.02-.03l2.43-1.4,2.05,1.19-2.44,1.45-2.05-1.18v-.02ZM265.27,213.02s.01-.03.02-.03l2.43-1.4,2.05,1.19-2.44,1.45-2.05-1.18v-.02ZM265.37,198.99s.01-.03.02-.03l2.43-1.4,2.05,1.19-2.44,1.45-2.05-1.18v-.02ZM265.45,221.9s.01-.03.02-.03l2.43-1.4,2.59,1.49-2.44,1.45-2.58-1.49v-.02ZM266.6,218.18s.01-.03.02-.03l2.43-1.4,2.05,1.19-2.44,1.45-2.05-1.18v-.02ZM267.38,205.47s.02-.03.02-.03l2.42-1.4,2.05,1.18-2.44,1.45-2.05-1.18v-.02ZM268.18,210.32s.01-.03.02-.03l2.43-1.4,2.05,1.19-2.44,1.45-2.05-1.18v-.02ZM268.63,214.96s.01-.03.02-.03l2.43-1.4,2.05,1.19-2.44,1.45-2.05-1.18v-.02ZM268.73,200.93s.01-.03.02-.03l2.43-1.4,2.05,1.19-2.44,1.45-2.05-1.18v-.02ZM269.35,224.15s.01-.03.02-.03l2.43-1.4,3.29,1.9-2.44,1.45-3.29-1.9v-.02ZM269.96,220.12s.01-.03.02-.03l2.43-1.4,6.47,3.74-2.44,1.45-6.47-3.74v-.02ZM270.74,207.41s.01-.03.02-.03l2.43-1.4,2.05,1.19-2.44,1.45-2.05-1.18v-.02ZM271.54,212.26s.01-.03.02-.03l2.43-1.4,2.05,1.19-2.44,1.45-2.05-1.18v-.02ZM271.99,216.9s.01-.03.02-.03l2.43-1.4,2.05,1.19-2.44,1.45-2.05-1.18v-.02ZM272.09,202.87s.01-.03.02-.03l2.43-1.4,2.05,1.19-2.44,1.45-2.05-1.18v-.02ZM274.1,209.35s.01-.03.02-.03l2.43-1.4,2.05,1.19-2.44,1.45-2.05-1.18v-.02ZM274.65,227.21s.01-.03.02-.03l2.43-1.4,2.05,1.19-2.44,1.45-2.05-1.18v-.02ZM274.9,214.2s.01-.03.02-.03l2.43-1.4,2.05,1.19-2.44,1.45-2.05-1.18v-.02ZM275.35,218.84s.01-.03.02-.03l2.43-1.4,1.88,1.08c.13.08.35.12.59.12s.48-.05.62-.13l3.19-1.84,2.41,1.39-6.24,3.64-4.88-2.82v-.02ZM275.45,204.81s.01-.03.02-.03l2.43-1.4,2.05,1.19-2.44,1.45-2.05-1.18v-.02ZM277.46,211.29s.01-.03.02-.03l2.43-1.4,2.05,1.19-2.44,1.45-2.05-1.18v-.02ZM278.01,229.15s.01-.03.02-.03l2.43-1.4,2.05,1.19-2.44,1.45-2.05-1.18v-.02ZM278.26,216.14s.01-.03.02-.03l2.43-1.4,2.05,1.19-2.44,1.45-2.05-1.18v-.02ZM280.27,207.59s.01-.03.02-.03l2.43-1.4,2.05,1.19-2.44,1.45-2.05-1.18v-.02ZM280.82,213.23s.01-.03.02-.03l2.43-1.4,2.05,1.19-2.44,1.45-2.05-1.18v-.02ZM281.37,231.09s.01-.03.02-.03l2.43-1.4,2.05,1.19-2.44,1.45-2.05-1.18v-.02ZM281.81,226.96s.01-.03.02-.03l2.43-1.4,2.05,1.19-2.44,1.45-2.05-1.18v-.02ZM283.63,209.53s.01-.03.02-.03l2.43-1.4,2.05,1.19-2.44,1.45-2.05-1.18v-.02ZM284.18,215.17s.01-.03.02-.03l2.43-1.4,3.65,2.1-2.44,1.45-3.64-2.1v-.02ZM285.44,233.44s.01-.03.02-.03l2.43-1.4,5.41,3.13-2.44,1.45-5.41-3.12v-.02ZM286.04,220.63s.01-.03.02-.03l2.43-1.4,2.05,1.19-2.44,1.45-2.05-1.18v-.02ZM286.99,211.47s.01-.03.02-.03l2.43-1.4,2.05,1.19-2.44,1.45-2.05-1.18v-.02ZM289.24,231.25s.01-.03.02-.03l2.43-1.4,2.05,1.19-2.44,1.45-2.05-1.18v-.02ZM289.4,222.57s.01-.03.02-.03l2.43-1.4,2.05,1.18-2.44,1.45-2.05-1.18v-.02ZM289.84,218.44s.01-.03.02-.03l2.43-1.4,2.05,1.19-2.44,1.45-2.05-1.18v-.02ZM290.35,213.41s.01-.03.02-.03l2.43-1.4,2.05,1.19-2.44,1.45-2.05-1.18v-.02ZM292.16,237.32s.01-.03.02-.03l2.43-1.4,2.05,1.19-2.44,1.45-2.05-1.18v-.02ZM292.6,233.19s.01-.03.02-.03l2.43-1.4,2.05,1.19-2.44,1.45-2.05-1.18v-.02ZM292.76,224.51s.01-.03.02-.03l2.43-1.4,2.05,1.19-2.44,1.45-2.05-1.18v-.02ZM293.04,229.05s.01-.03.02-.03l2.43-1.4,2.05,1.19-2.44,1.45-2.05-1.18v-.02ZM293.2,220.38s.01-.03.02-.03l2.43-1.4,2.05,1.19-2.44,1.45-2.05-1.18v-.02ZM294.45,215.78s.01-.03.02-.03l2.43-1.4,2.05,1.19-2.44,1.45-2.05-1.18v-.02ZM295.52,239.26s.01-.03.02-.03l6.22-3.59,2.05,1.19-6.24,3.64-2.05-1.18v-.02ZM295.96,235.13s.01-.03.02-.03l2.43-1.4,2.05,1.19-2.44,1.45-2.05-1.18v-.02ZM296.4,230.99s.01-.03.02-.03l2.43-1.4,2.05,1.19-2.44,1.45-2.05-1.18v-.02ZM296.56,222.32s.01-.03.02-.03l2.43-1.4,2.05,1.19-2.44,1.45-2.05-1.18v-.02ZM296.83,226.86s.01-.03.02-.03l2.43-1.4,2.05,1.19-2.44,1.45-2.05-1.18v-.02ZM297.81,217.72s.01-.03.02-.03l2.43-1.4,2.05,1.19-2.44,1.45-2.05-1.18v-.02ZM299.76,232.93s.01-.03.02-.03l2.43-1.4,2.05,1.19-2.44,1.45-2.05-1.18v-.02ZM300.19,228.8s.01-.03.02-.03l2.43-1.4,2.05,1.19-2.44,1.45-2.05-1.18v-.02ZM300.63,224.67s.01-.03.02-.03l2.43-1.4,2.05,1.19-2.44,1.45-2.05-1.18v-.02ZM301.17,219.66s.01-.03.02-.03l2.43-1.4,2.05,1.19-2.44,1.45-2.05-1.18v-.02ZM303.12,234.87s.01-.03.02-.03l6.22-3.59,2.05,1.19-6.24,3.64-2.05-1.18v-.02ZM303.55,230.74s.01-.03.02-.03l2.43-1.4,2.05,1.19-2.44,1.45-2.05-1.18v-.02ZM303.99,226.61s.01-.03.02-.03l2.43-1.4,2.05,1.19-2.44,1.45-2.05-1.18v-.02ZM306.22,221.44s.01-.03.02-.03l1.03-.61,2.05,1.19-1.05.65-2.04-1.18v-.02ZM307.35,228.55s.01-.03.02-.03l2.43-1.4,2.05,1.19-2.44,1.45-2.05-1.18v-.02ZM309.58,223.38s.01-.03.02-.03l1.03-.61,2.05,1.19-1.05.65-2.04-1.18v-.02ZM310.71,230.49s.01-.03.02-.03l2.43-1.4,2.05,1.19-2.44,1.45-2.05-1.18v-.02ZM312.94,225.32s.01-.03.02-.03l1.03-.61,2.05,1.19-1.05.65-2.04-1.18v-.02ZM316.29,227.26s.01-.03.02-.03l1.03-.61,2.05,1.19-1.05.65-2.04-1.18v-.02Z"/>
        </g>
      </g>
      <g id="Device">
        <polygon id="Shadow-6" data-name="Shadow" class="cls-9" points="385.58 235.17 408.53 221.92 293.77 155.66 270.82 168.91 385.58 235.17"/>
        <g id="Monitor">
          <g>
            <path class="cls-13" d="M320.59,213.6l-16.39-9.47c-1.69-.98-2.53-2.25-2.53-3.53,0-1.28,0-2.28,0-2.28l15.42-8.75c.9-.52,1.63-1.79,1.63-2.83v-20.2l28.62,16.54v20.2c0,1.04-.73,2.31-1.63,2.83l-12.88,7.5c-3.38,1.95-8.86,1.95-12.23,0Z"/>
            <path class="cls-18" d="M340.47,206.85v2.27l5.25-3.02c.89-.52,1.63-1.78,1.63-2.83v-20.2l-5.45-3.15c-.11,1.38-.24,2.82-.35,4.21l3.82,2.21v15.78c0,1.05-.73,2.31-1.63,2.83l-3.27,1.89Z"/>
            <path class="cls-12" d="M345.36,202.13c0,1.04-.73,2.31-1.63,2.83l-10.9,6.36c-3.38,1.95-8.86,1.95-12.23,0l-16.39-9.47c-3.38-1.95-3.38-5.11,0-7.06l10.91-6.36c.9-.52,1.63-1.79,1.63-2.83v-15.79s28.62,16.54,28.62,16.54v15.79Z"/>
            <path class="cls-17" d="M311.79,190.34h0s3.32-1.92,3.32-1.92c.9-.52,1.63-1.79,1.63-2.83v-15.79l28.62,16.54v15.79c0,1.04-.73,2.31-1.63,2.83l-3.26,1.89-28.68-16.5Z"/>
            <path class="cls-17" d="M301.67,198.31v2.28c0,1.28.85,2.55,2.53,3.53l16.39,9.47c1.62.94,3.72,1.41,5.84,1.45v-2.27c-2.12-.03-4.22-.52-5.84-1.45l-16.39-9.48c-1.69-.97-2.53-2.25-2.53-3.53Z"/>
          </g>
          <path class="cls-3" d="M391.32,223.93c-1.06.61-2.83.58-3.95-.07-14.07-8.12-96.62-55.78-110.69-63.9-1.13-.65-2.04-2.23-2.04-3.53V59.54c0-1.3.86-2.85,1.91-3.46,1.06-.61,2.83-.58,3.95.07l110.69,63.9c1.13.65,2.04,2.23,2.04,3.53v96.88c0,1.3-.86,2.85-1.91,3.46Z"/>
          <path class="cls-25" d="M387.37,223.85l-110.69-63.9c-1.13-.65-2.04-2.23-2.04-3.53V59.53c0-1.3.91-1.83,2.04-1.18l110.69,63.9c1.13.65,2.04,2.23,2.04,3.53v96.88c0,1.3-.91,1.83-2.04,1.18Z"/>
          <path class="cls-18" d="M387.67,224.26c1.13.5,2.69.48,3.65-.08,1.05-.61,1.91-2.16,1.91-3.47v-10.9l-3.82,2.21v10.9c0,1.19-.75,1.72-1.74,1.33Z"/>
          <path class="cls-19" d="M389.41,212.03v10.9c0,1.3-.91,1.83-2.04,1.18l-110.69-63.9c-1.13-.65-2.04-2.23-2.04-3.53v-10.9l114.77,66.26Z"/>
          <path class="cls-10" d="M385.58,203.74v-76.68c0-.78-.55-1.73-1.22-2.12l-104.67-60.43c-.68-.39-1.22-.07-1.22.71v76.68c0,.78.54,1.73,1.22,2.12l104.67,60.43c.68.39,1.22.07,1.22-.71Z"/>
          <path class="cls-23" d="M385.58,203.74v-76.68c0-.78-.55-1.73-1.22-2.12l-104.67-60.43c-.68-.39-1.22-.07-1.22.71v76.68c0,.78.54,1.73,1.22,2.12l104.67,60.43c.68.39,1.22.07,1.22-.71Z"/>
          <path class="cls-3" d="M332.03,183.07c1.06.61,1.91,2.09,1.91,3.31s-.86,1.71-1.91,1.1c-1.06-.61-1.91-2.09-1.91-3.31,0-1.22.86-1.71,1.91-1.1Z"/>
          <path class="cls-2" d="M388.81,123.78c.37.64.59,1.37.6,2.02v86.24l3.82-2.21v-86.23c0-.65-.24-1.37-.6-2.02l-3.82,2.2Z"/>
        </g>
      </g>
      <g id="Window">
        <g id="Window-2" data-name="Window">
          <path class="cls-3" d="M292.75,39.53c0-.06.01-.12.03-.18,0-.01,0-.03,0-.04,0-.06.03-.12.04-.17.03-.09.06-.17.12-.25.01-.04.04-.07.06-.1.02-.03.03-.05.06-.07.04-.05.08-.09.13-.13,0,0,0,0,.01-.01.05-.04.11-.07.17-.1.35-.17.81-.12,1.31.17l129.17,74.55c1.08.62,1.95,2.14,1.95,3.38v93.49s0,.01,0,.02v.43c0,.53-.3.95-.7,1.17-.03.02-.06.04-.08.06-.03.02-.06.04-.1.06-.05.03-.11.04-.17.06-.08.02-.17.03-.25.03-.2,0-.42-.06-.65-.19l-.05-.03s0,0,0,0l-1.86-1.07-127.26-73.47c-1.08-.62-1.95-2.13-1.95-3.38V39.78c0-.08,0-.17.01-.24Z"/>
          <g>
            <path class="cls-10" d="M293.38,38.48c.35-.17.81-.12,1.31.17l129.17,74.55c1.08.62,1.95,2.14,1.95,3.38v6.38l2.49-1.46v-6.33c0-1.24-.87-2.75-1.95-3.38l-129.18-74.55c-.56-.33-1.06-.33-1.42-.12-.35.21-1.97,1.14-2.39,1.36Z"/>
            <path class="cls-10" d="M292.74,39.76c0-1.23.88-1.73,1.95-1.11l129.17,74.55c1.08.62,1.95,2.14,1.95,3.38v6.38s-133.08-76.79-133.08-76.79v-6.4Z"/>
            <g class="cls-31">
              <path class="cls-19" d="M294.69,38.65l129.17,74.55c.53.31,1.02.84,1.37,1.45l2.48-1.44c-.35-.6-.83-1.12-1.36-1.42l-129.18-74.55c-.56-.33-1.06-.33-1.42-.12-.35.21-1.97,1.14-2.38,1.36.34-.17.8-.12,1.31.17Z"/>
            </g>
            <path class="cls-9" d="M428.32,121.5v-6.34c0-.63-.23-1.33-.6-1.95l-2.49,1.43c.36.61.58,1.31.58,1.94v6.38l2.5-1.45Z"/>
          </g>
          <g>
            <path class="cls-3" d="M421.42,114.54c.61.35,1.1,1.4,1.1,2.33s-.49,1.41-1.1,1.06c-.61-.35-1.1-1.4-1.1-2.33s.49-1.41,1.1-1.06Z"/>
            <path class="cls-3" d="M417.45,112.25c.61.35,1.1,1.4,1.1,2.33s-.49,1.41-1.1,1.06-1.1-1.4-1.1-2.33.49-1.41,1.1-1.06Z"/>
            <path class="cls-3" d="M413.48,109.95c.61.35,1.1,1.4,1.1,2.33s-.49,1.41-1.1,1.06c-.61-.35-1.1-1.4-1.1-2.33s.49-1.41,1.1-1.06Z"/>
          </g>
          <path class="cls-11" d="M425.12,211.69l.1-.06,2.06-1.19c.56-.32.93-.88,1.02-1.51.01-.1.02-.19.02-.28v-87.15l-2.49,1.46v87.55c0,.49-.25.89-.61,1.11-.02.02-.04.03-.06.04,0,0,0,.01-.01.01l-.02.02Z"/>
        </g>
        <g id="Code">
          <g>
            <path class="cls-10" d="M332.31,79.44l27.23,15.69c.38.22.69.74.69,1.15s-.31.57-.69.35l-27.23-15.69c-.38-.22-.69-.74-.69-1.15s.31-.57.69-.35Z"/>
            <path class="cls-13" d="M342.72,109.48l10.32,5.94c.38.22.69.74.69,1.15s-.31.57-.69.35l-10.32-5.94c-.38-.22-.69-.74-.69-1.15s.31-.57.69-.35Z"/>
            <path class="cls-13" d="M342.72,115.49l10.32,5.94c.38.22.69.74.69,1.15s-.31.57-.69.35l-10.32-5.94c-.38-.22-.69-.74-.69-1.15s.31-.57.69-.35Z"/>
            <path class="cls-10" d="M362.23,96.68l54.52,31.4c.38.22.69.74.69,1.15s-.31.57-.69.35l-54.52-31.4c-.38-.22-.69-.74-.69-1.15s.31-.57.69-.35Z"/>
            <path class="cls-10" d="M342.94,151.61l16.6,9.61c.38.22.69.74.69,1.15s-.31.57-.69.35l-16.6-9.61c-.38-.22-.69-.74-.69-1.15,0-.41.31-.57.69-.35Z"/>
            <path class="cls-10" d="M362.23,162.77l54.52,31.44c.38.22.69.74.69,1.15s-.31.57-.69.35l-54.52-31.44c-.38-.22-.69-.74-.69-1.15s.31-.57.69-.35Z"/>
            <g>
              <path class="cls-10" d="M332.31,85.46l13.72,7.88c.38.22.69.74.69,1.15s-.31.57-.69.35l-13.72-7.88c-.38-.22-.69-.74-.69-1.15s.31-.57.69-.35Z"/>
              <path class="cls-7" d="M332.31,85.46l13.72,7.88c.38.22.69.74.69,1.15s-.31.57-.69.35l-13.72-7.88c-.38-.22-.69-.74-.69-1.15s.31-.57.69-.35Z"/>
            </g>
            <g>
              <path class="cls-10" d="M332.31,91.46l6.42,3.7c.38.22.69.74.69,1.15s-.31.57-.69.35l-6.42-3.7c-.38-.22-.69-.74-.69-1.15s.31-.57.69-.35Z"/>
              <path class="cls-7" d="M332.31,91.46l6.42,3.7c.38.22.69.74.69,1.15s-.31.57-.69.35l-6.42-3.7c-.38-.22-.69-.74-.69-1.15s.31-.57.69-.35Z"/>
            </g>
            <g>
              <path class="cls-10" d="M332.31,103.47l6.42,3.7c.38.22.69.74.69,1.15s-.31.57-.69.35l-6.42-3.7c-.38-.22-.69-.74-.69-1.15s.31-.57.69-.35Z"/>
              <path class="cls-7" d="M332.31,103.47l6.42,3.7c.38.22.69.74.69,1.15s-.31.57-.69.35l-6.42-3.7c-.38-.22-.69-.74-.69-1.15s.31-.57.69-.35Z"/>
            </g>
            <g>
              <path class="cls-10" d="M332.31,109.48l6.42,3.7c.38.22.69.74.69,1.15s-.31.57-.69.35l-6.42-3.7c-.38-.22-.69-.74-.69-1.15s.31-.57.69-.35Z"/>
              <path class="cls-7" d="M332.31,109.48l6.42,3.7c.38.22.69.74.69,1.15s-.31.57-.69.35l-6.42-3.7c-.38-.22-.69-.74-.69-1.15s.31-.57.69-.35Z"/>
            </g>
            <g>
              <path class="cls-10" d="M348.72,94.89l8.23,4.77c.38.22.69.74.69,1.15s-.31.57-.69.35l-8.23-4.77c-.38-.22-.69-.74-.69-1.15,0-.41.31-.57.69-.35Z"/>
              <path class="cls-7" d="M348.72,94.89l8.23,4.77c.38.22.69.74.69,1.15s-.31.57-.69.35l-8.23-4.77c-.38-.22-.69-.74-.69-1.15,0-.41.31-.57.69-.35Z"/>
            </g>
            <path class="cls-19" d="M361.44,138.33l55.32,31.85c.38.22.69.74.69,1.15s-.31.57-.69.35l-55.32-31.85c-.38-.22-.69-.74-.69-1.15s.31-.57.69-.35Z"/>
            <path class="cls-19" d="M408.53,159.4l8.23,4.77c.38.22.69.74.69,1.15s-.31.57-.69.35l-8.23-4.77c-.38-.22-.69-.74-.69-1.15s.31-.57.69-.35Z"/>
            <path class="cls-19" d="M350.52,125.99l55.32,31.85c.38.22.69.74.69,1.15s-.31.57-.69.35l-55.32-31.85c-.38-.22-.69-.74-.69-1.15s.31-.57.69-.35Z"/>
            <g>
              <path class="cls-10" d="M342.72,97.47l13.72,7.88c.38.22.69.74.69,1.15s-.31.57-.69.35l-13.72-7.88c-.38-.22-.69-.74-.69-1.15,0-.41.31-.57.69-.35Z"/>
              <path class="cls-7" d="M342.72,97.47l13.72,7.88c.38.22.69.74.69,1.15s-.31.57-.69.35l-13.72-7.88c-.38-.22-.69-.74-.69-1.15,0-.41.31-.57.69-.35Z"/>
            </g>
            <g>
              <path class="cls-10" d="M359.12,106.9l57.23,33.11c.38.22.69.74.69,1.15s-.31.57-.69.35l-57.23-33.1c-.38-.22-.69-.74-.69-1.15s.31-.57.69-.35Z"/>
              <path class="cls-7" d="M359.12,106.9l57.23,33.11c.38.22.69.74.69,1.15s-.31.57-.69.35l-57.23-33.1c-.38-.22-.69-.74-.69-1.15s.31-.57.69-.35Z"/>
            </g>
            <path class="cls-13" d="M342.72,133.64l74.04,42.7c.38.22.69.74.69,1.15s-.31.57-.69.35l-74.04-42.7c-.38-.22-.69-.74-.69-1.15s.31-.57.69-.35Z"/>
            <g>
              <path class="cls-10" d="M332.31,127.63l6.42,3.7c.38.22.69.74.69,1.15s-.31.57-.69.35l-6.42-3.7c-.38-.22-.69-.74-.69-1.15s.31-.57.69-.35Z"/>
              <path class="cls-7" d="M332.31,127.63l6.42,3.7c.38.22.69.74.69,1.15s-.31.57-.69.35l-6.42-3.7c-.38-.22-.69-.74-.69-1.15s.31-.57.69-.35Z"/>
            </g>
            <path class="cls-13" d="M342.72,139.64l74.04,42.7c.38.22.69.74.69,1.15s-.31.57-.69.35l-74.04-42.7c-.38-.22-.69-.74-.69-1.15s.31-.57.69-.35Z"/>
            <g>
              <path class="cls-10" d="M332.31,133.64l6.42,3.7c.38.22.69.74.69,1.15s-.31.57-.69.35l-6.42-3.7c-.38-.22-.69-.74-.69-1.15s.31-.57.69-.35Z"/>
              <path class="cls-7" d="M332.31,133.64l6.42,3.7c.38.22.69.74.69,1.15s-.31.57-.69.35l-6.42-3.7c-.38-.22-.69-.74-.69-1.15s.31-.57.69-.35Z"/>
            </g>
            <path class="cls-13" d="M342.72,145.65l74.04,42.7c.38.22.69.74.69,1.15s-.31.57-.69.35l-74.04-42.7c-.38-.22-.69-.74-.69-1.15s.31-.57.69-.35Z"/>
            <g>
              <path class="cls-10" d="M332.31,139.64l6.42,3.7c.38.22.69.74.69,1.15s-.31.57-.69.35l-6.42-3.7c-.38-.22-.69-.74-.69-1.15s.31-.57.69-.35Z"/>
              <path class="cls-7" d="M332.31,139.64l6.42,3.7c.38.22.69.74.69,1.15s-.31.57-.69.35l-6.42-3.7c-.38-.22-.69-.74-.69-1.15s.31-.57.69-.35Z"/>
            </g>
          </g>
          <g class="cls-28">
            <path class="cls-19" d="M322.31,73.41l3.77,2.18c.38.22.69.75.69,1.19v1.39c0,.44-.31.61-.69.4l-3.77-2.18c-.38-.22-.69-.75-.69-1.19v-1.39c0-.44.31-.61.68-.4Z"/>
            <path class="cls-19" d="M322.31,79.48l3.77,2.18c.38.22.69.75.69,1.19v1.39c0,.44-.31.61-.69.4l-3.77-2.18c-.38-.22-.69-.75-.69-1.19v-1.39c0-.44.31-.61.68-.4Z"/>
            <path class="cls-19" d="M322.31,85.54l3.77,2.18c.38.22.69.75.69,1.19v1.39c0,.44-.31.61-.69.4l-3.77-2.18c-.38-.22-.69-.75-.69-1.19v-1.39c0-.44.31-.61.68-.4Z"/>
            <path class="cls-19" d="M322.31,91.61l3.77,2.18c.38.22.69.75.69,1.19v1.39c0,.44-.31.61-.69.4l-3.77-2.18c-.38-.22-.69-.75-.69-1.19v-1.39c0-.44.31-.61.68-.4Z"/>
            <path class="cls-19" d="M322.31,97.67l3.77,2.18c.38.22.69.75.69,1.19v1.39c0,.44-.31.61-.69.4l-3.77-2.18c-.38-.22-.69-.75-.69-1.19v-1.39c0-.44.31-.61.68-.4Z"/>
            <path class="cls-19" d="M322.31,103.74l3.77,2.18c.38.22.69.75.69,1.19v1.39c0,.44-.31.61-.69.4l-3.77-2.18c-.38-.22-.69-.75-.69-1.19v-1.39c0-.44.31-.61.68-.4Z"/>
            <path class="cls-19" d="M322.31,109.8l3.77,2.18c.38.22.69.75.69,1.19v1.39c0,.44-.31.61-.69.4l-3.77-2.18c-.38-.22-.69-.75-.69-1.19v-1.39c0-.44.31-.61.68-.4Z"/>
            <path class="cls-19" d="M322.31,115.87l3.77,2.18c.38.22.69.75.69,1.19v1.39c0,.44-.31.61-.69.4l-3.77-2.18c-.38-.22-.69-.75-.69-1.19v-1.39c0-.44.31-.61.68-.4Z"/>
            <path class="cls-19" d="M322.31,121.93l3.77,2.18c.38.22.69.75.69,1.19v1.39c0,.44-.31.61-.69.4l-3.77-2.18c-.38-.22-.69-.75-.69-1.19v-1.39c0-.44.31-.61.68-.4Z"/>
            <path class="cls-19" d="M322.31,128l3.77,2.18c.38.22.69.75.69,1.19v1.39c0,.44-.31.61-.69.4l-3.77-2.18c-.38-.22-.69-.75-.69-1.19v-1.39c0-.44.31-.61.68-.4Z"/>
            <path class="cls-19" d="M322.31,134.06l3.77,2.18c.38.22.69.75.69,1.19v1.39c0,.44-.31.61-.69.4l-3.77-2.18c-.38-.22-.69-.75-.69-1.19v-1.39c0-.44.31-.61.68-.4Z"/>
            <path class="cls-19" d="M322.31,140.13l3.77,2.18c.38.22.69.75.69,1.19v1.39c0,.44-.31.61-.69.4l-3.77-2.18c-.38-.22-.69-.75-.69-1.19v-1.39c0-.44.31-.61.68-.4Z"/>
          </g>
          <g>
            <path class="cls-25" d="M297.28,53.71l20.4,11.78c.76.44,1.37,1.5,1.37,2.37v23.55c0,.87-.61,1.23-1.37.79l-20.4-11.78c-.76-.44-1.37-1.5-1.37-2.37v-23.55c0-.87.61-1.23,1.37-.79Z"/>
            <g>
              <g>
                <path class="cls-10" d="M299.17,77.06l1.88,1.09c.38.22.69.74.69,1.15s-.31.57-.69.35l-1.88-1.09c-.38-.22-.69-.74-.69-1.15,0-.41.31-.57.69-.35Z"/>
                <path class="cls-7" d="M299.17,77.06l1.88,1.09c.38.22.69.74.69,1.15s-.31.57-.69.35l-1.88-1.09c-.38-.22-.69-.74-.69-1.15,0-.41.31-.57.69-.35Z"/>
              </g>
              <g>
                <path class="cls-10" d="M299.17,57.77l1.88,1.09c.38.22.69.74.69,1.15s-.31.57-.69.35l-1.88-1.09c-.38-.22-.69-.74-.69-1.15,0-.41.31-.57.69-.35Z"/>
                <path class="cls-7" d="M299.17,57.77l1.88,1.09c.38.22.69.74.69,1.15s-.31.57-.69.35l-1.88-1.09c-.38-.22-.69-.74-.69-1.15,0-.41.31-.57.69-.35Z"/>
              </g>
              <g>
                <path class="cls-10" d="M301.81,63.15l1.88,1.09c.38.22.69.74.69,1.15s-.31.57-.69.35l-1.88-1.09c-.38-.22-.69-.74-.69-1.15,0-.41.31-.57.69-.35Z"/>
                <path class="cls-7" d="M301.81,63.15l1.88,1.09c.38.22.69.74.69,1.15s-.31.57-.69.35l-1.88-1.09c-.38-.22-.69-.74-.69-1.15,0-.41.31-.57.69-.35Z"/>
              </g>
              <g>
                <path class="cls-10" d="M301.81,66.99l1.88,1.09c.38.22.69.74.69,1.15s-.31.57-.69.35l-1.88-1.09c-.38-.22-.69-.74-.69-1.15,0-.41.31-.57.69-.35Z"/>
                <path class="cls-7" d="M301.81,66.99l1.88,1.09c.38.22.69.74.69,1.15s-.31.57-.69.35l-1.88-1.09c-.38-.22-.69-.74-.69-1.15,0-.41.31-.57.69-.35Z"/>
              </g>
              <g>
                <path class="cls-10" d="M299.17,69.34l1.88,1.09c.38.22.69.74.69,1.15s-.31.57-.69.35l-1.88-1.09c-.38-.22-.69-.74-.69-1.15,0-.41.31-.57.69-.35Z"/>
                <path class="cls-7" d="M299.17,69.34l1.88,1.09c.38.22.69.74.69,1.15s-.31.57-.69.35l-1.88-1.09c-.38-.22-.69-.74-.69-1.15,0-.41.31-.57.69-.35Z"/>
              </g>
              <g>
                <path class="cls-10" d="M301.81,74.72l1.88,1.09c.38.22.69.74.69,1.15s-.31.57-.69.35l-1.88-1.09c-.38-.22-.69-.74-.69-1.15,0-.41.31-.57.69-.35Z"/>
                <path class="cls-7" d="M301.81,74.72l1.88,1.09c.38.22.69.74.69,1.15s-.31.57-.69.35l-1.88-1.09c-.38-.22-.69-.74-.69-1.15,0-.41.31-.57.69-.35Z"/>
              </g>
            </g>
            <g>
              <g>
                <path class="cls-10" d="M304.32,60.74l11.47,6.62c.38.22.69.74.69,1.15s-.31.57-.69.35l-11.47-6.62c-.38-.22-.69-.74-.69-1.15s.31-.57.69-.35Z"/>
                <path class="cls-5" d="M304.32,60.74l11.47,6.62c.38.22.69.74.69,1.15s-.31.57-.69.35l-11.47-6.62c-.38-.22-.69-.74-.69-1.15s.31-.57.69-.35Z"/>
              </g>
              <g>
                <path class="cls-10" d="M304.32,80.03l11.47,6.62c.38.22.69.74.69,1.15s-.31.57-.69.35l-11.47-6.62c-.38-.22-.69-.74-.69-1.15s.31-.57.69-.35Z"/>
                <path class="cls-5" d="M304.32,80.03l11.47,6.62c.38.22.69.74.69,1.15s-.31.57-.69.35l-11.47-6.62c-.38-.22-.69-.74-.69-1.15s.31-.57.69-.35Z"/>
              </g>
              <g>
                <path class="cls-10" d="M306.96,66.12l8.83,5.11c.38.22.69.74.69,1.15s-.31.57-.69.35l-8.83-5.11c-.38-.22-.69-.74-.69-1.15,0-.41.31-.57.69-.35Z"/>
                <path class="cls-5" d="M306.96,66.12l8.83,5.11c.38.22.69.74.69,1.15s-.31.57-.69.35l-8.83-5.11c-.38-.22-.69-.74-.69-1.15,0-.41.31-.57.69-.35Z"/>
              </g>
              <g>
                <path class="cls-10" d="M306.96,69.97l8.83,5.11c.38.22.69.74.69,1.15s-.31.57-.69.35l-8.83-5.11c-.38-.22-.69-.74-.69-1.15,0-.41.31-.57.69-.35Z"/>
                <path class="cls-5" d="M306.96,69.97l8.83,5.11c.38.22.69.74.69,1.15s-.31.57-.69.35l-8.83-5.11c-.38-.22-.69-.74-.69-1.15,0-.41.31-.57.69-.35Z"/>
              </g>
              <g>
                <path class="cls-10" d="M304.32,72.32l11.47,6.62c.38.22.69.74.69,1.15s-.31.57-.69.35l-11.47-6.62c-.38-.22-.69-.74-.69-1.15s.31-.57.69-.35Z"/>
                <path class="cls-5" d="M304.32,72.32l11.47,6.62c.38.22.69.74.69,1.15s-.31.57-.69.35l-11.47-6.62c-.38-.22-.69-.74-.69-1.15s.31-.57.69-.35Z"/>
              </g>
              <g>
                <path class="cls-10" d="M306.96,77.69l8.83,5.11c.38.22.69.74.69,1.15s-.31.57-.69.35l-8.83-5.11c-.38-.22-.69-.74-.69-1.15,0-.41.31-.57.69-.35Z"/>
                <path class="cls-5" d="M306.96,77.69l8.83,5.11c.38.22.69.74.69,1.15s-.31.57-.69.35l-8.83-5.11c-.38-.22-.69-.74-.69-1.15,0-.41.31-.57.69-.35Z"/>
              </g>
            </g>
          </g>
          <g>
            <path class="cls-25" d="M297.28,84.87l20.4,11.78c.76.44,1.37,1.5,1.37,2.37v46.54c0,.87-.61,1.23-1.37.79l-20.4-11.78c-.76-.44-1.37-1.5-1.37-2.37v-46.54c0-.87.61-1.23,1.37-.79Z"/>
            <g>
              <g>
                <path class="cls-10" d="M299.17,88.92l1.88,1.09c.38.22.69.74.69,1.15s-.31.57-.69.35l-1.88-1.09c-.38-.22-.69-.74-.69-1.15,0-.41.31-.57.69-.35Z"/>
                <path class="cls-7" d="M299.17,88.92l1.88,1.09c.38.22.69.74.69,1.15s-.31.57-.69.35l-1.88-1.09c-.38-.22-.69-.74-.69-1.15,0-.41.31-.57.69-.35Z"/>
              </g>
              <g>
                <path class="cls-10" d="M301.81,94.3l1.88,1.09c.38.22.69.74.69,1.15s-.31.57-.69.35l-1.88-1.09c-.38-.22-.69-.74-.69-1.15,0-.41.31-.57.69-.35Z"/>
                <path class="cls-7" d="M301.81,94.3l1.88,1.09c.38.22.69.74.69,1.15s-.31.57-.69.35l-1.88-1.09c-.38-.22-.69-.74-.69-1.15,0-.41.31-.57.69-.35Z"/>
              </g>
              <g>
                <path class="cls-10" d="M301.81,98.15l1.88,1.09c.38.22.69.74.69,1.15s-.31.57-.69.35l-1.88-1.09c-.38-.22-.69-.74-.69-1.15,0-.41.31-.57.69-.35Z"/>
                <path class="cls-7" d="M301.81,98.15l1.88,1.09c.38.22.69.74.69,1.15s-.31.57-.69.35l-1.88-1.09c-.38-.22-.69-.74-.69-1.15,0-.41.31-.57.69-.35Z"/>
              </g>
              <g>
                <path class="cls-10" d="M299.17,100.5l1.88,1.09c.38.22.69.74.69,1.15s-.31.57-.69.35l-1.88-1.09c-.38-.22-.69-.74-.69-1.15,0-.41.31-.57.69-.35Z"/>
                <path class="cls-7" d="M299.17,100.5l1.88,1.09c.38.22.69.74.69,1.15s-.31.57-.69.35l-1.88-1.09c-.38-.22-.69-.74-.69-1.15,0-.41.31-.57.69-.35Z"/>
              </g>
            </g>
            <g>
              <g>
                <path class="cls-10" d="M304.32,91.9l11.47,6.62c.38.22.69.74.69,1.15s-.31.57-.69.35l-11.47-6.62c-.38-.22-.69-.74-.69-1.15s.31-.57.69-.35Z"/>
                <path class="cls-5" d="M304.32,91.9l11.47,6.62c.38.22.69.74.69,1.15s-.31.57-.69.35l-11.47-6.62c-.38-.22-.69-.74-.69-1.15s.31-.57.69-.35Z"/>
              </g>
              <g>
                <path class="cls-10" d="M306.96,97.27l8.83,5.11c.38.22.69.74.69,1.15s-.31.57-.69.35l-8.83-5.11c-.38-.22-.69-.74-.69-1.15,0-.41.31-.57.69-.35Z"/>
                <path class="cls-5" d="M306.96,97.27l8.83,5.11c.38.22.69.74.69,1.15s-.31.57-.69.35l-8.83-5.11c-.38-.22-.69-.74-.69-1.15,0-.41.31-.57.69-.35Z"/>
              </g>
              <g>
                <path class="cls-10" d="M306.96,101.13l8.83,5.11c.38.22.69.74.69,1.15s-.31.57-.69.35l-8.83-5.11c-.38-.22-.69-.74-.69-1.15,0-.41.31-.57.69-.35Z"/>
                <path class="cls-5" d="M306.96,101.13l8.83,5.11c.38.22.69.74.69,1.15s-.31.57-.69.35l-8.83-5.11c-.38-.22-.69-.74-.69-1.15,0-.41.31-.57.69-.35Z"/>
              </g>
              <g>
                <path class="cls-10" d="M304.32,103.47l11.47,6.62c.38.22.69.74.69,1.15s-.31.57-.69.35l-11.47-6.62c-.38-.22-.69-.74-.69-1.15s.31-.57.69-.35Z"/>
                <path class="cls-5" d="M304.32,103.47l11.47,6.62c.38.22.69.74.69,1.15s-.31.57-.69.35l-11.47-6.62c-.38-.22-.69-.74-.69-1.15s.31-.57.69-.35Z"/>
              </g>
              <g>
                <path class="cls-10" d="M301.81,105.89l1.88,1.09c.38.22.69.74.69,1.15s-.31.57-.69.35l-1.88-1.09c-.38-.22-.69-.74-.69-1.15,0-.41.31-.57.69-.35Z"/>
                <path class="cls-7" d="M301.81,105.89l1.88,1.09c.38.22.69.74.69,1.15s-.31.57-.69.35l-1.88-1.09c-.38-.22-.69-.74-.69-1.15,0-.41.31-.57.69-.35Z"/>
              </g>
              <g>
                <path class="cls-10" d="M301.81,109.74l1.88,1.09c.38.22.69.74.69,1.15s-.31.57-.69.35l-1.88-1.09c-.38-.22-.69-.74-.69-1.15,0-.41.31-.57.69-.35Z"/>
                <path class="cls-7" d="M301.81,109.74l1.88,1.09c.38.22.69.74.69,1.15s-.31.57-.69.35l-1.88-1.09c-.38-.22-.69-.74-.69-1.15,0-.41.31-.57.69-.35Z"/>
              </g>
              <g>
                <path class="cls-10" d="M306.96,108.86l8.83,5.11c.38.22.69.74.69,1.15s-.31.57-.69.35l-8.83-5.11c-.38-.22-.69-.74-.69-1.15,0-.41.31-.57.69-.35Z"/>
                <path class="cls-5" d="M306.96,108.86l8.83,5.11c.38.22.69.74.69,1.15s-.31.57-.69.35l-8.83-5.11c-.38-.22-.69-.74-.69-1.15,0-.41.31-.57.69-.35Z"/>
              </g>
              <g>
                <path class="cls-10" d="M306.96,112.72l8.83,5.11c.38.22.69.74.69,1.15s-.31.57-.69.35l-8.83-5.11c-.38-.22-.69-.74-.69-1.15,0-.41.31-.57.69-.35Z"/>
                <path class="cls-5" d="M306.96,112.72l8.83,5.11c.38.22.69.74.69,1.15s-.31.57-.69.35l-8.83-5.11c-.38-.22-.69-.74-.69-1.15,0-.41.31-.57.69-.35Z"/>
              </g>
              <g>
                <path class="cls-10" d="M299.17,119.83l1.88,1.09c.38.22.69.74.69,1.15s-.31.57-.69.35l-1.88-1.09c-.38-.22-.69-.74-.69-1.15,0-.41.31-.57.69-.35Z"/>
                <path class="cls-7" d="M299.17,119.83l1.88,1.09c.38.22.69.74.69,1.15s-.31.57-.69.35l-1.88-1.09c-.38-.22-.69-.74-.69-1.15,0-.41.31-.57.69-.35Z"/>
              </g>
              <g>
                <path class="cls-10" d="M304.32,122.8l11.47,6.62c.38.22.69.74.69,1.15s-.31.57-.69.35l-11.47-6.62c-.38-.22-.69-.74-.69-1.15s.31-.57.69-.35Z"/>
                <path class="cls-5" d="M304.32,122.8l11.47,6.62c.38.22.69.74.69,1.15s-.31.57-.69.35l-11.47-6.62c-.38-.22-.69-.74-.69-1.15s.31-.57.69-.35Z"/>
              </g>
              <g>
                <path class="cls-10" d="M301.81,125.23l1.88,1.09c.38.22.69.74.69,1.15s-.31.57-.69.35l-1.88-1.09c-.38-.22-.69-.74-.69-1.15,0-.41.31-.57.69-.35Z"/>
                <path class="cls-7" d="M301.81,125.23l1.88,1.09c.38.22.69.74.69,1.15s-.31.57-.69.35l-1.88-1.09c-.38-.22-.69-.74-.69-1.15,0-.41.31-.57.69-.35Z"/>
              </g>
              <g>
                <path class="cls-10" d="M301.81,129.08l1.88,1.09c.38.22.69.74.69,1.15s-.31.57-.69.35l-1.88-1.09c-.38-.22-.69-.74-.69-1.15,0-.41.31-.57.69-.35Z"/>
                <path class="cls-7" d="M301.81,129.08l1.88,1.09c.38.22.69.74.69,1.15s-.31.57-.69.35l-1.88-1.09c-.38-.22-.69-.74-.69-1.15,0-.41.31-.57.69-.35Z"/>
              </g>
              <g>
                <path class="cls-10" d="M306.96,128.2l8.83,5.11c.38.22.69.74.69,1.15s-.31.57-.69.35l-8.83-5.11c-.38-.22-.69-.74-.69-1.15,0-.41.31-.57.69-.35Z"/>
                <path class="cls-5" d="M306.96,128.2l8.83,5.11c.38.22.69.74.69,1.15s-.31.57-.69.35l-8.83-5.11c-.38-.22-.69-.74-.69-1.15,0-.41.31-.57.69-.35Z"/>
              </g>
              <g>
                <path class="cls-10" d="M306.96,132.06l8.83,5.11c.38.22.69.74.69,1.15s-.31.57-.69.35l-8.83-5.11c-.38-.22-.69-.74-.69-1.15,0-.41.31-.57.69-.35Z"/>
                <path class="cls-5" d="M306.96,132.06l8.83,5.11c.38.22.69.74.69,1.15s-.31.57-.69.35l-8.83-5.11c-.38-.22-.69-.74-.69-1.15,0-.41.31-.57.69-.35Z"/>
              </g>
              <g>
                <path class="cls-10" d="M301.81,113.57l1.88,1.09c.38.22.69.74.69,1.15s-.31.57-.69.35l-1.88-1.09c-.38-.22-.69-.74-.69-1.15,0-.41.31-.57.69-.35Z"/>
                <path class="cls-7" d="M301.81,113.57l1.88,1.09c.38.22.69.74.69,1.15s-.31.57-.69.35l-1.88-1.09c-.38-.22-.69-.74-.69-1.15,0-.41.31-.57.69-.35Z"/>
              </g>
              <g>
                <path class="cls-10" d="M299.17,115.92l1.88,1.09c.38.22.69.74.69,1.15s-.31.57-.69.35l-1.88-1.09c-.38-.22-.69-.74-.69-1.15,0-.41.31-.57.69-.35Z"/>
                <path class="cls-7" d="M299.17,115.92l1.88,1.09c.38.22.69.74.69,1.15s-.31.57-.69.35l-1.88-1.09c-.38-.22-.69-.74-.69-1.15,0-.41.31-.57.69-.35Z"/>
              </g>
              <g>
                <path class="cls-10" d="M306.96,116.55l8.83,5.11c.38.22.69.74.69,1.15s-.31.57-.69.35l-8.83-5.11c-.38-.22-.69-.74-.69-1.15,0-.41.31-.57.69-.35Z"/>
                <path class="cls-5" d="M306.96,116.55l8.83,5.11c.38.22.69.74.69,1.15s-.31.57-.69.35l-8.83-5.11c-.38-.22-.69-.74-.69-1.15,0-.41.31-.57.69-.35Z"/>
              </g>
              <g>
                <path class="cls-10" d="M304.32,118.89l11.47,6.62c.38.22.69.74.69,1.15s-.31.57-.69.35l-11.47-6.62c-.38-.22-.69-.74-.69-1.15s.31-.57.69-.35Z"/>
                <path class="cls-5" d="M304.32,118.89l11.47,6.62c.38.22.69.74.69,1.15s-.31.57-.69.35l-11.47-6.62c-.38-.22-.69-.74-.69-1.15s.31-.57.69-.35Z"/>
              </g>
              <g>
                <path class="cls-10" d="M299.17,131.48l1.88,1.09c.38.22.69.74.69,1.15s-.31.57-.69.35l-1.88-1.09c-.38-.22-.69-.74-.69-1.15,0-.41.31-.57.69-.35Z"/>
                <path class="cls-7" d="M299.17,131.48l1.88,1.09c.38.22.69.74.69,1.15s-.31.57-.69.35l-1.88-1.09c-.38-.22-.69-.74-.69-1.15,0-.41.31-.57.69-.35Z"/>
              </g>
              <g>
                <path class="cls-10" d="M304.32,134.46l11.47,6.62c.38.22.69.74.69,1.15s-.31.57-.69.35l-11.47-6.62c-.38-.22-.69-.74-.69-1.15s.31-.57.69-.35Z"/>
                <path class="cls-5" d="M304.32,134.46l11.47,6.62c.38.22.69.74.69,1.15s-.31.57-.69.35l-11.47-6.62c-.38-.22-.69-.74-.69-1.15s.31-.57.69-.35Z"/>
              </g>
            </g>
          </g>
        </g>
      </g>
      <g id="Window-3" data-name="Window">
        <g>
          <g class="cls-30">
            <path class="cls-3" d="M410.78,150.29v76.38c0,1.02.71,2.24,1.59,2.75l43.88,25.32c.18.1.36.16.53.15.07,0,.14-.01.2-.03.05-.01.09-.03.14-.05.03-.02.06-.03.08-.05.03-.02.06-.04.09-.06.03-.03.06-.05.09-.08.13-.11.22-.26.29-.42.1-.23.17-.51.17-.8v-75.99c0-1.01-.71-2.24-1.59-2.75l-43.88-25.29c-.41-.23-.78-.27-1.07-.14-.05.02-.09.05-.14.08,0,0-.01.01-.01.01-.04.03-.07.06-.1.1-.02.02-.03.04-.05.06-.02.03-.04.05-.05.08-.04.06-.07.13-.09.2-.02.04-.03.09-.04.14,0,.01-.01.02,0,.03-.02.05-.02.09-.03.15,0,.06-.01.13-.01.2Z"/>
          </g>
          <g>
            <path class="cls-10" d="M411.3,149.24c.29-.14.66-.1,1.07.14l43.88,25.29c.87.51,1.59,1.74,1.59,2.75v5.19l2.53-1.46v-5.15c0-1.01-.71-2.24-1.58-2.74l-43.88-25.29c-.45-.27-.86-.27-1.15-.09-.29.17-2.11,1.2-2.45,1.38Z"/>
            <path class="cls-10" d="M410.79,150.28c0-1,.71-1.41,1.58-.9l43.88,25.29c.88.51,1.59,1.74,1.59,2.75v5.19s-47.05-27.12-47.05-27.12v-5.21Z"/>
            <g class="cls-31">
              <path class="cls-19" d="M412.37,149.38l43.88,25.29c.43.25.83.68,1.12,1.18l2.52-1.44c-.28-.49-.67-.91-1.1-1.16l-43.88-25.29c-.45-.26-.86-.27-1.15-.09-.28.17-2.1,1.2-2.44,1.38.28-.13.65-.09,1.06.14Z"/>
            </g>
            <path class="cls-9" d="M460.37,181.15v-5.16c0-.51-.19-1.08-.48-1.59l-2.52,1.44c.29.5.47,1.06.47,1.58v5.19l2.53-1.46Z"/>
          </g>
          <g>
            <path class="cls-3" d="M455.53,176.8c.49.29.9,1.14.9,1.9s-.4,1.15-.9.86c-.49-.29-.9-1.14-.9-1.9s.4-1.15.9-.86Z"/>
            <path class="cls-3" d="M452.3,174.94c.49.29.9,1.14.9,1.9s-.4,1.15-.9.86-.9-1.13-.9-1.9.4-1.15.9-.86Z"/>
            <path class="cls-3" d="M449.08,173.07c.49.29.9,1.14.9,1.9s-.4,1.15-.9.86c-.49-.29-.9-1.14-.9-1.9s.4-1.15.9-.86Z"/>
          </g>
          <g class="cls-32">
            <path class="cls-25" d="M457.26,254.74c.06-.04.12-.07.2-.11.15-.09.31-.18.49-.28h0c.09-.06.18-.11.27-.16,0,0,.02-.01.02-.01.15-.08.29-.17.42-.24.14-.08.76-.42.85-.47.09-.06.17-.09.2-.11.1-.05.19-.12.27-.22.08-.09.16-.2.21-.32.11-.24.18-.53.18-.84v-70.84l-2.53,1.46v70.81c-.02.31-.07.58-.17.8-.07.16-.17.3-.29.42-.02.03-.05.06-.09.08-.01.02-.02.03-.04.04Z"/>
          </g>
        </g>
        <g>
          <g>
            <path class="cls-10" d="M414.43,164.25c0-.1.03-.16.08-.2l1.14-1.04s.04-.02.05,0c.02,0,.02,0,.03.01.03.02.06.06.09.11.02.05.04.11.04.16v.79c0,.1,0,.17-.02.22-.02.04-.04.09-.08.12l-.6.55.6,1.25c.04.08.07.15.08.22.02.06.02.14.02.25v.79c0,.05-.01.09-.04.12-.03.02-.06.03-.09,0,0,0-.01,0-.03-.02-.02-.01-.03-.04-.05-.07l-1.14-2.36c-.05-.1-.08-.2-.08-.3v-.59Z"/>
            <path class="cls-10" d="M418.6,163.15c.02-.05.05-.1.09-.13.04-.03.09-.03.17.01l.43.25s.06.06.09.11c.03.05.04.11.04.16,0,.02,0,.05-.01.07l-1.96,6.08c-.02.05-.04.09-.08.13-.04.04-.1.03-.17-.01l-.41-.24s-.06-.06-.09-.11c-.03-.05-.04-.11-.04-.16,0-.02,0-.05.01-.07l1.94-6.09Z"/>
            <path class="cls-10" d="M421.63,168.99c0,.1-.03.16-.08.2l-1.14,1.04s-.04.02-.05.01c-.02,0-.02,0-.03-.01-.03-.02-.06-.06-.09-.11-.02-.05-.04-.11-.04-.16v-.79c0-.1,0-.17.02-.22.02-.04.04-.09.08-.12l.6-.55-.6-1.25c-.04-.08-.07-.15-.08-.22-.02-.06-.02-.14-.02-.24v-.79c0-.05.01-.09.04-.12.03-.02.06-.03.09,0,0,0,.01,0,.03.02.02.01.03.04.05.07l1.14,2.36c.05.1.08.2.08.3v.59Z"/>
            <path class="cls-10" d="M424.8,172.11s.08.07.11.14c.03.07.05.13.05.2v.87c0,.07-.02.11-.05.14-.03.03-.07.03-.11,0l-.54-.31s-.08-.07-.11-.13c-.03-.07-.05-.13-.05-.2v-.87c0-.07.02-.11.05-.14.03-.03.07-.03.11,0l.54.31Z"/>
            <path class="cls-10" d="M426.6,173.15s.08.07.11.13c.03.07.05.13.05.2v.87c0,.07-.02.11-.05.14-.03.03-.07.03-.11,0l-.54-.31s-.08-.07-.11-.13c-.03-.07-.05-.13-.05-.2v-.87c0-.07.02-.11.05-.14.03-.03.07-.03.11,0l.54.31Z"/>
            <path class="cls-10" d="M428.4,174.19s.08.07.11.13c.03.07.05.13.05.2v.87c0,.07-.02.11-.05.14-.03.03-.07.03-.11,0l-.54-.31s-.08-.07-.11-.13c-.03-.07-.05-.13-.05-.2v-.87c0-.07.02-.11.05-.14.03-.03.07-.03.11,0l.54.31Z"/>
          </g>
          <path class="cls-10" d="M414.91,171.17l26.36,15.22c.31.18.56.6.56.94s-.25.46-.56.29l-26.36-15.22c-.31-.18-.56-.6-.56-.94,0-.34.25-.46.56-.29Z"/>
          <path class="cls-13" d="M423.37,190.71l26.36,15.22c.31.18.56.6.56.94s-.25.46-.56.29l-26.36-15.22c-.31-.18-.56-.6-.56-.94s.25-.47.56-.29Z"/>
          <path class="cls-13" d="M423.37,200.47l12.62,7.29c.31.18.56.6.56.94s-.25.46-.56.29l-12.62-7.29c-.31-.18-.56-.6-.56-.94s.25-.46.56-.29Z"/>
          <path class="cls-10" d="M443.46,187.65l10.5,6.04c.31.18.56.6.56.94s-.25.46-.56.29l-10.5-6.04c-.31-.18-.56-.6-.56-.94s.25-.46.56-.29Z"/>
          <path class="cls-10" d="M414.91,224.89l26.36,15.22c.31.18.56.6.56.94s-.25.46-.56.29l-26.36-15.22c-.31-.18-.56-.6-.56-.94,0-.34.25-.46.56-.29Z"/>
          <path class="cls-10" d="M443.46,241.37l10.5,6.04c.31.18.56.6.56.94s-.25.46-.56.29l-10.5-6.04c-.31-.18-.56-.6-.56-.94s.25-.46.56-.29Z"/>
          <path class="cls-10" d="M443.46,226.74l10.5,6.04c.31.18.56.6.56.94s-.25.46-.56.29l-10.5-6.04c-.31-.18-.56-.6-.56-.94s.25-.46.56-.29Z"/>
          <path class="cls-10" d="M443.46,231.63l10.5,6.04c.31.18.56.6.56.94s-.25.46-.56.29l-10.5-6.04c-.31-.18-.56-.6-.56-.94s.25-.46.56-.29Z"/>
          <path class="cls-10" d="M434.5,221.56l5.9,3.41c.31.18.56.6.56.94s-.25.46-.56.29l-5.9-3.41c-.31-.18-.56-.6-.56-.94s.25-.46.56-.29Z"/>
          <g>
            <path class="cls-10" d="M414.91,176.07l15.38,8.87c.31.18.56.6.56.94s-.25.46-.56.29l-15.38-8.87c-.31-.18-.56-.6-.56-.94,0-.34.25-.46.56-.29Z"/>
            <path class="cls-7" d="M414.91,176.07l15.38,8.87c.31.18.56.6.56.94s-.25.46-.56.29l-15.38-8.87c-.31-.18-.56-.6-.56-.94,0-.34.25-.46.56-.29Z"/>
          </g>
          <g>
            <path class="cls-10" d="M414.91,180.94l5.22,3.01c.31.18.56.6.56.94s-.25.46-.56.29l-5.22-3.01c-.31-.18-.56-.6-.56-.94,0-.34.25-.46.56-.29Z"/>
            <path class="cls-7" d="M414.91,180.94l5.22,3.01c.31.18.56.6.56.94s-.25.46-.56.29l-5.22-3.01c-.31-.18-.56-.6-.56-.94,0-.34.25-.46.56-.29Z"/>
          </g>
          <g>
            <path class="cls-10" d="M414.91,185.82l5.22,3.01c.31.18.56.6.56.94s-.25.46-.56.29l-5.22-3.01c-.31-.18-.56-.6-.56-.94,0-.34.25-.46.56-.29Z"/>
            <path class="cls-7" d="M414.91,185.82l5.22,3.01c.31.18.56.6.56.94s-.25.46-.56.29l-5.22-3.01c-.31-.18-.56-.6-.56-.94,0-.34.25-.46.56-.29Z"/>
          </g>
          <path class="cls-10" d="M414.91,190.71l5.22,3.01c.31.18.56.6.56.94s-.25.46-.56.29l-5.22-3.01c-.31-.18-.56-.6-.56-.94,0-.34.25-.46.56-.29Z"/>
          <path class="cls-7" d="M414.91,190.71l5.22,3.01c.31.18.56.6.56.94s-.25.46-.56.29l-5.22-3.01c-.31-.18-.56-.6-.56-.94,0-.34.25-.46.56-.29Z"/>
          <path class="cls-14" d="M423.37,195.59l15.38,8.87c.31.18.56.6.56.94s-.25.46-.56.29l-15.38-8.87c-.31-.18-.56-.6-.56-.94s.25-.46.56-.29Z"/>
          <path class="cls-14" d="M440.93,205.72l6.69,3.87c.31.18.56.6.56.94s-.25.46-.56.29l-6.69-3.87c-.31-.18-.56-.6-.56-.94,0-.34.25-.46.56-.29Z"/>
          <path class="cls-7" d="M423.37,195.59l15.38,8.87c.31.18.56.6.56.94s-.25.46-.56.29l-15.38-8.87c-.31-.18-.56-.6-.56-.94s.25-.46.56-.29Z"/>
          <path class="cls-7" d="M440.93,205.72l6.69,3.87c.31.18.56.6.56.94s-.25.46-.56.29l-6.69-3.87c-.31-.18-.56-.6-.56-.94,0-.34.25-.46.56-.29Z"/>
          <g>
            <path class="cls-10" d="M414.91,195.59l5.22,3.01c.31.18.56.6.56.94s-.25.46-.56.29l-5.22-3.01c-.31-.18-.56-.6-.56-.94,0-.34.25-.46.56-.29Z"/>
            <path class="cls-7" d="M414.91,195.59l5.22,3.01c.31.18.56.6.56.94s-.25.46-.56.29l-5.22-3.01c-.31-.18-.56-.6-.56-.94,0-.34.25-.46.56-.29Z"/>
          </g>
          <g>
            <path class="cls-10" d="M432.47,186.2l6.69,3.87c.31.18.56.6.56.94s-.25.46-.56.29l-6.69-3.87c-.31-.18-.56-.6-.56-.94s.25-.46.56-.29Z"/>
            <path class="cls-7" d="M432.47,186.2l6.69,3.87c.31.18.56.6.56.94s-.25.46-.56.29l-6.69-3.87c-.31-.18-.56-.6-.56-.94s.25-.46.56-.29Z"/>
          </g>
          <path class="cls-19" d="M429.71,209.01l15.38,8.87c.31.18.56.6.56.94s-.25.46-.56.29l-15.38-8.87c-.31-.18-.56-.6-.56-.94s.25-.46.56-.29Z"/>
          <path class="cls-19" d="M438.59,219.04l15.38,8.87c.31.18.56.6.56.94s-.25.46-.56.29l-15.38-8.87c-.31-.18-.56-.6-.56-.94,0-.34.25-.46.56-.29Z"/>
          <path class="cls-19" d="M447.28,219.15l6.69,3.87c.31.18.56.6.56.94s-.25.46-.56.29l-6.69-3.87c-.31-.18-.56-.6-.56-.94,0-.34.25-.46.56-.29Z"/>
          <path class="cls-13" d="M447.28,238.49l6.69,3.87c.31.18.56.6.56.94s-.25.46-.56.29l-6.69-3.87c-.31-.18-.56-.6-.56-.94,0-.34.25-.46.56-.29Z"/>
          <g>
            <path class="cls-10" d="M423.37,185.82l15.38,8.87c.31.18.56.6.56.94s-.25.46-.56.29l-15.38-8.87c-.31-.18-.56-.6-.56-.94s.25-.46.56-.29Z"/>
            <path class="cls-7" d="M423.37,185.82l15.38,8.87c.31.18.56.6.56.94s-.25.46-.56.29l-15.38-8.87c-.31-.18-.56-.6-.56-.94s.25-.46.56-.29Z"/>
          </g>
          <g>
            <path class="cls-10" d="M440.93,195.96l6.69,3.87c.31.18.56.6.56.94s-.25.46-.56.29l-6.69-3.87c-.31-.18-.56-.6-.56-.94,0-.34.25-.46.56-.29Z"/>
            <path class="cls-7" d="M440.93,195.96l6.69,3.87c.31.18.56.6.56.94s-.25.46-.56.29l-6.69-3.87c-.31-.18-.56-.6-.56-.94,0-.34.25-.46.56-.29Z"/>
          </g>
        </g>
      </g>
      <g id="Mouse">
        <path class="cls-9" d="M336.12,251.91l9.42,5.44c2.97,1.72,7.63,1.47,10.4-.55l15.55-11.35c2.77-2.02,2.62-5.05-.35-6.77l-4.73-2.74c-2.97-1.72-7.86-1.87-10.93-.33l-19.19,10.41c-3.07,1.54-3.14,4.17-.17,5.89Z"/>
        <path class="cls-25" d="M371.74,240.51l-10.76,8.41-7.94,6.21c-.77.36-1.65.56-2.53.61-1.34.07-2.71-.19-3.76-.8l-8.43-4.87s-.01,0-.01-.01c-.02,0-.03-.02-.05-.03-2.96-1.72-3.66-5.72-1.7-8.53.08-.12.16-.23.25-.34,1.6-2.16,3.99-3.73,6.78-4.3l4.27-.86c6.92-1.4,12.6-2.09,13.25-1.64l10.57,6.12s.05.01.06.02Z"/>
        <path class="cls-10" d="M365.73,245.22l.6-.47-9.49-5.48,8.3-2.57c-.29-.17-.57-.33-.84-.48l-8.3,2.57-5.66-3.27c-.35.07-.71.13-1.07.2l16.45,9.5Z"/>
        <path class="cls-2" d="M353.98,254.62s.04-.02.05-.04c0-.01.01-.01.01-.01l7.55-5.45,10.2-7.37v-1.16s-.01-.06-.05-.09c-.01-.01-.04-.02-.06-.02-.76-.26-5.18,1.07-10.52,3.19l-3.54,1.4c-1.11.43-2.12,1.04-3.02,1.79-2.55,2.1-4.09,5.27-4.09,8.68v.19c.88-.05,1.76-.25,2.53-.61l.93-.51Z"/>
      </g>
    </g>
  </g>
  <g id="Plant">
    <g id="Pot">
      <g>
        <path class="cls-10" d="M372.7,405.51c-10.38-10.71-16.47-54.29-6.35-62.78h51.5c10.12,8.49,4.03,52.06-6.34,62.77-.09.1-.19.2-.28.29-.12.12-.24.24-.36.35-.29.29-.6.57-.94.84-.08.07-.17.13-.25.2-.25.2-.51.4-.78.6-.44.32-.89.61-1.34.87-8.54,4.98-22.38,4.98-30.91,0h0s0,0,0,0c-.46-.26-.91-.55-1.35-.87-.26-.18-.49-.37-.73-.56-.1-.08-.2-.16-.31-.24-.32-.27-.62-.54-.9-.81-.14-.13-.28-.27-.41-.41-.08-.08-.16-.16-.24-.25Z"/>
        <g class="cls-31">
          <path class="cls-19" d="M372.7,405.51c-10.38-10.71-16.47-54.29-6.35-62.78h51.5c10.12,8.49,4.03,52.06-6.34,62.77-.09.1-.19.2-.28.29-.12.12-.24.24-.36.35-.29.29-.6.57-.94.84-.08.07-.17.13-.25.2-.25.2-.51.4-.78.6-.44.32-.89.61-1.34.87-8.54,4.98-22.38,4.98-30.91,0h0s0,0,0,0c-.46-.26-.91-.55-1.35-.87-.26-.18-.49-.37-.73-.56-.1-.08-.2-.16-.31-.24-.32-.27-.62-.54-.9-.81-.14-.13-.28-.27-.41-.41-.08-.08-.16-.16-.24-.25Z"/>
        </g>
        <path class="cls-10" d="M413.38,339.31c11.75,6.86,11.75,17.98,0,24.85-11.75,6.86-30.8,6.86-42.56,0-11.75-6.86-11.75-17.98,0-24.85,11.75-6.86,30.8-6.86,42.56,0Z"/>
        <g class="cls-29">
          <path class="cls-19" d="M413.38,339.31c11.75,6.86,11.75,17.98,0,24.85-11.75,6.86-30.8,6.86-42.56,0-11.75-6.86-11.75-17.98,0-24.85,11.75-6.86,30.8-6.86,42.56,0Z"/>
        </g>
        <path class="cls-10" d="M407.73,342.61c8.63,5.04,8.63,13.21,0,18.25s-22.62,5.04-31.25,0c-8.63-5.04-8.63-13.21,0-18.25,8.63-5.04,22.62-5.04,31.25,0Z"/>
        <g class="cls-36">
          <path class="cls-4" d="M407.73,342.61c8.63,5.04,8.63,13.21,0,18.25s-22.62,5.04-31.25,0c-8.63-5.04-8.63-13.21,0-18.25,8.63-5.04,22.62-5.04,31.25,0Z"/>
        </g>
        <path class="cls-12" d="M376.47,351.27c8.63-5.04,22.62-5.04,31.25,0,2.4,1.4,4.1,3.04,5.17,4.79-1.07,1.75-2.77,3.39-5.17,4.79-8.63,5.04-22.62,5.04-31.25,0-2.4-1.4-4.1-3.04-5.17-4.79,1.07-1.75,2.77-3.39,5.17-4.79Z"/>
      </g>
      <g id="Plants">
        <g>
          <path class="cls-10" d="M387.88,329.28c-.58-1.17-1.06-2.39-1.31-3.76-.58-3.14.21-6.73,2.74-8.67,1.01-.77,2.33-1.34,2.75-2.53.24-.66.15-1.38.03-2.07-.47-2.68-1.38-5.44-.63-8.05.69-2.42,2.72-4.27,4.99-5.35,2.27-1.08,4.8-1.49,7.28-1.9,1.32-.22,2.68-.45,3.85-1.1,1.44-.81,1.89-2.23,2.78-3.48.99-1.37,2.27-2.65,3.53-3.77,2.62-2.34,5.91-4.27,9.54-4.11,7.57.34,7.36,6.85,5.17,11.8-2.19,4.94-2.76,6.55,1.97,11.7,4.73,5.15,4.74,11.49-.9,15.05-5.65,3.55-9.32,4.02-7.09,10.86,2,6.11,3.23,11.32-2.41,17.85-3.65,4.22-8.64,7.23-14.88,6.97-1.77-.07-5.66-.89-7.3-1.7-1.72-.85-.56-2.19-1.14-3.88-1.25-3.64-2.49-7.28-3.74-10.92-.97-2.82-1.7-5.94-2.97-8.62-.72-1.5-1.56-2.87-2.26-4.3Z"/>
          <g class="cls-37">
            <path class="cls-4" d="M387.88,329.28c-.58-1.17-1.06-2.39-1.31-3.76-.58-3.14.21-6.73,2.74-8.67,1.01-.77,2.33-1.34,2.75-2.53.24-.66.15-1.38.03-2.07-.47-2.68-1.38-5.44-.63-8.05.69-2.42,2.72-4.27,4.99-5.35,2.27-1.08,4.8-1.49,7.28-1.9,1.32-.22,2.68-.45,3.85-1.1,1.44-.81,1.89-2.23,2.78-3.48.99-1.37,2.27-2.65,3.53-3.77,2.62-2.34,5.91-4.27,9.54-4.11,7.57.34,7.36,6.85,5.17,11.8-2.19,4.94-2.76,6.55,1.97,11.7,4.73,5.15,4.74,11.49-.9,15.05-5.65,3.55-9.32,4.02-7.09,10.86,2,6.11,3.23,11.32-2.41,17.85-3.65,4.22-8.64,7.23-14.88,6.97-1.77-.07-5.66-.89-7.3-1.7-1.72-.85-.56-2.19-1.14-3.88-1.25-3.64-2.49-7.28-3.74-10.92-.97-2.82-1.7-5.94-2.97-8.62-.72-1.5-1.56-2.87-2.26-4.3Z"/>
          </g>
          <path class="cls-19" d="M398.18,356.97c.22-.08.38-.29.37-.54-.32-37.42,20.3-59.76,20.51-59.98.21-.23.2-.58-.02-.8-.22-.22-.58-.21-.79.02-.21.22-21.14,22.87-20.82,60.76,0,.31.25.56.56.56.06,0,.12-.01.18-.03Z"/>
          <path class="cls-19" d="M404.18,322.17s.08-.03.11-.05c6.71-4.22,18.69-7.37,18.8-7.41.3-.08.48-.38.4-.69-.08-.3-.38-.48-.68-.41-.5.13-12.26,3.23-19.11,7.54-.26.16-.34.51-.18.78.14.23.41.32.65.24Z"/>
          <path class="cls-19" d="M406.26,317.04s.02,0,.03-.01c.28-.12.42-.45.3-.73-2.35-5.8-6.03-10.23-6.19-10.41-.2-.24-.55-.27-.79-.07-.23.2-.26.56-.06.79.04.04,3.73,4.48,6.01,10.11.11.28.42.42.7.32Z"/>
        </g>
        <g>
          <path class="cls-10" d="M392.92,361.03s-7,2.65-16.43.61c-9.43-2.04-15.19-10.84-15.19-10.84,0,0,10.2-4.08,16.14-4.48,0,0-9.23-1.57-17.86.38,0,0-5.46-2.03-4.42-11.25,0,0,5.14-3.78,16.96-2.3,0,0-5.92-4.23-16.31-5.48-.82,0,.29-12,1.28-17.35.99-5.35,2.95-4.52,7.2-4.06,4.25.46,16.81,3.32,18.4,6.4,1.59,3.08.04,10.94.04,10.94,0,0,3.45-4.3,3.47-10.28,0,0,4.73,1.73,7.25,3.96,2.53,2.23,3.79,4.04,4.52,5.66-.59,4.21-2.57,10.64-5.35,14.23,0,0,6.26-4.04,7.69-11.49,0,0,5.01,6.4,4.96,14.65-.06,9.42-4.24,16.41-12.36,20.7Z"/>
          <path class="cls-24" d="M392.92,361.03s-7,2.65-16.43.61c-9.43-2.04-15.19-10.84-15.19-10.84,0,0,10.2-4.08,16.14-4.48,0,0-9.23-1.57-17.86.38,0,0-5.46-2.03-4.42-11.25,0,0,5.14-3.78,16.96-2.3,0,0-5.92-4.23-16.31-5.48-.82,0,.29-12,1.28-17.35.99-5.35,2.95-4.52,7.2-4.06,4.25.46,16.81,3.32,18.4,6.4,1.59,3.08.04,10.94.04,10.94,0,0,3.45-4.3,3.47-10.28,0,0,4.73,1.73,7.25,3.96,2.53,2.23,3.79,4.04,4.52,5.66-.59,4.21-2.57,10.64-5.35,14.23,0,0,6.26-4.04,7.69-11.49,0,0,5.01,6.4,4.96,14.65-.06,9.42-4.24,16.41-12.36,20.7Z"/>
          <path class="cls-19" d="M394.17,360.19c-.19-.07-.32-.25-.34-.46-1.43-17.86-21.4-45.75-30.24-51.35-.25-.16-.33-.49-.17-.75.16-.25.49-.33.74-.17,8.98,5.69,29.28,34.04,30.73,52.18.02.3-.2.56-.49.58-.08,0-.16,0-.24-.03Z"/>
        </g>
      </g>
    </g>
  </g>
  <g id="Character">
    <g id="Character-2" data-name="Character">
      <g>
        <g>
          <path class="cls-6" d="M213.49,349.03c-.04-.2-3.21-11.79-3.21-11.79,0,0,1.04,1.07,7.75-.7,3.41-.9,7.29-3.06,7.29-3.06l1.91,8.48c1.78,3.26,7.7,1.76,14.19,1.02,1.09-.12,2.21-.31,3.33-.5h.07c3.5-.2,7.02,1.9,3.38,4.89-3.64,2.99-9.64,4.12-15.18,5.12-6.66,1.2-18.33,3.16-19.53-3.45Z"/>
          <g>
            <path class="cls-2" d="M260.04,348s.7,1.34.48,3.56c-.13,1.29-3.32,5.67-8.96,8.35-5.64,2.68-12.62,2.86-15.89,3.8-3.27.94-6.26,2.82-10.11,3.75-3.97.97-7.66,1.43-11.51-1.11-.71-1.1-1.5-3.63-1.27-3.87.61-.66,47.26-14.49,47.26-14.49Z"/>
            <path class="cls-10" d="M228.25,343.08c2.48,1.72,7.62.52,13.17-.11,5.23-.6,11.13-2.44,14.68-1.2,3.56,1.23,6.53,5.42,1.72,10.79-1.39,1.55-4.33,4.29-6.69,5.13-5.98,2.14-11.34,2.31-15.18,3.26-5,1.23-7.74,3.45-12.36,3.99-5.99.69-9.78-.84-10.81-2.44-1.04-1.6-2-14.49.57-14.22,0,0,1.08,4.17,10.86.12,4.27-1.77,4.2-4.37,4.04-5.31Z"/>
            <path class="cls-16" d="M228.25,343.08c2.48,1.72,7.62.52,13.17-.11,5.23-.6,11.13-2.44,14.68-1.2,3.56,1.23,6.53,5.42,1.72,10.79-1.39,1.55-4.33,4.29-6.69,5.13-5.98,2.14-11.34,2.31-15.18,3.26-5,1.23-7.74,3.45-12.36,3.99-5.99.69-9.78-.84-10.81-2.44-1.04-1.6-2-14.49.57-14.22,0,0,1.08,4.17,10.86.12,4.27-1.77,4.2-4.37,4.04-5.31Z"/>
            <path class="cls-20" d="M244.85,349.99s-.56-5.44-4.58-6.89c0,0-1.3-.6-2.22.29,0,0,3.73.54,4.96,6.93,0,0,.19.42,1.01.27.27-.05.88-.16.84-.61Z"/>
            <path class="cls-20" d="M234.62,343.82s0-.18.94-.36c.68-.13,1.1.12,1.1.12,0,0,3,1.3,3.56,6.99,0,0-.02.69-.92.88-.9.19-1.07-.56-1.07-.56,0,0-.62-5.99-3.61-7.07Z"/>
            <path class="cls-20" d="M231.4,343.94s.17-.34.87-.34c.89,0,1.1.35,1.1.35,0,0,2.14,2.19,2.16,6.95,0,0,.09.81-1.03.89-1.12.08-.96-.83-.96-.83,0,0-.39-6.06-2.14-7.01Z"/>
          </g>
        </g>
        <path class="cls-25" d="M209.35,270.2c4.9,14.73,17.9,65.46,17.9,65.46,0,0-8.46,7.6-17.64,4.14l-21.87-63.17,21.6-6.43Z"/>
      </g>
      <g>
        <g>
          <path class="cls-6" d="M247.14,365.4c-1-1.49-4.76-11.8-4.76-11.8,0,0,3.93,2.24,10.67.64,3.43-.82,6.64-4.54,6.64-4.54l2.88,9.92c1.7,3.31,7.21,2.21,13.71,1.63,1.09-.1,2.22-.25,3.34-.42h.07c3.5-.11,6.97,2.08,3.25,4.97-3.71,2.9-9.74,3.88-15.3,4.74-6.68,1.04-16.75.43-20.5-5.14Z"/>
          <g>
            <path class="cls-2" d="M297.56,365.09s.72,1.46.43,3.84c-.17,1.38-3.71,6-9.84,8.73-6.13,2.73-13.62,2.74-17.16,3.66-3.53.92-6.79,2.86-10.95,3.76-4.28.93-8.26,1.34-12.33-1.49-.73-1.2-1.51-3.93-1.26-4.19.68-.7,51.11-14.31,51.11-14.31Z"/>
            <path class="cls-10" d="M263.63,358.87c.4.27.81.55,1.23.76.44.23.87.22,1.36.28,1.09.13,2.18.14,3.27.08,2.75-.14,5.47-.55,8.21-.79,5.63-.5,12.01-2.32,15.8-.9,3.79,1.42,7.24,5.98,1.94,11.61-1.53,1.63-4.69,4.38-7.11,5.39-6.29,2.63-12.82,2.14-16.97,3.06-5.4,1.19-8.4,3.5-13.38,3.95-6.45.59-10.47-1.16-11.54-2.91-.6-.97.07-6.03-.74-9.95-.7-3.38-.51-5.68.7-5.53.19.44.64.83.94,1.19.39.48.88.85,1.43,1.13.76.39,1.59.6,2.42.81,1.47.37,2.98.73,4.49.62.43-.03.88-.11,1.22-.39.44-.36.59-.97.71-1.52.11-.5.21-.99.32-1.49.06-.27.12-.55.27-.78.18-.27.48-.45.77-.61.91-.51,1.88-1,2.46-1.87.45-.68.59-1.51.72-2.31.02-.14.05-.29.16-.38.18-.15.45-.02.65.1.22.14.45.29.67.45Z"/>
            <path class="cls-16" d="M263.63,358.87c.4.27.81.55,1.23.76.44.23.87.22,1.36.28,1.09.13,2.18.14,3.27.08,2.75-.14,5.47-.55,8.21-.79,5.63-.5,12.01-2.32,15.8-.9,3.79,1.42,7.24,5.98,1.94,11.61-1.53,1.63-4.69,4.38-7.11,5.39-6.29,2.63-12.82,2.14-16.97,3.06-5.4,1.19-8.4,3.5-13.38,3.95-6.45.59-10.47-1.16-11.54-2.91-.6-.97.07-6.03-.74-9.95-.7-3.38-.51-5.68.7-5.53.19.44.64.83.94,1.19.39.48.88.85,1.43,1.13.76.39,1.59.6,2.42.81,1.47.37,2.98.73,4.49.62.43-.03.88-.11,1.22-.39.44-.36.59-.97.71-1.52.11-.5.21-.99.32-1.49.06-.27.12-.55.27-.78.18-.27.48-.45.77-.61.91-.51,1.88-1,2.46-1.87.45-.68.59-1.51.72-2.31.02-.14.05-.29.16-.38.18-.15.45-.02.65.1.22.14.45.29.67.45Z"/>
            <path class="cls-20" d="M281.2,366.83s-.46-5.86-4.74-7.51c0,0-1.38-.67-2.39.25,0,0,3.99.68,5.14,7.57,0,0,.2.46,1.07.32.3-.05.95-.15.92-.63Z"/>
            <path class="cls-20" d="M270.38,359.94s0-.19,1.02-.36c.74-.12,1.18.16,1.18.16,0,0,3.19,1.47,3.64,7.6,0,0-.04.74-1.02.91-.97.18-1.14-.63-1.14-.63,0,0-.51-6.44-3.69-7.69Z"/>
            <path class="cls-20" d="M266.92,359.98s.19-.36.95-.34c.96.03,1.17.4,1.17.4,0,0,2.24,2.41,2.14,7.51,0,0,.07.87-1.13.93-1.21.06-1.01-.91-1.01-.91,0,0-.25-6.52-2.11-7.59Z"/>
          </g>
        </g>
        <path class="cls-3" d="M243.84,287.59c3.86,11.87,13.71,45.66,18.22,63.04,0,0-8.09,7.27-18.5,6.64l-25.09-65.06,9.99-6.18,15.38,1.56Z"/>
      </g>
      <g>
        <path class="cls-3" d="M161.23,450.03c.9,0,1.63-.73,1.63-1.63v-104.59c0-.9-.73-1.63-1.63-1.63s-1.63.73-1.63,1.63v104.59c0,.9.73,1.63,1.63,1.63Z"/>
        <path class="cls-3" d="M96.52,411.96c.65,0,1.26-.39,1.51-1.03l32.07-81.18c.33-.84-.08-1.78-.92-2.11-.83-.33-1.78.08-2.11.92l-32.07,81.18c-.33.84.08,1.78.92,2.11.2.08.4.11.6.11Z"/>
        <path class="cls-3" d="M100.37,402.21c.43,0,.86-.17,1.18-.51l59.68-63.15,59.57,62.88c.62.65,1.65.68,2.3.06.65-.62.68-1.65.06-2.3l-60.75-64.13c-.31-.32-.73-.51-1.18-.51h0c-.45,0-.87.18-1.18.51l-60.86,64.4c-.62.65-.59,1.68.07,2.3.31.3.71.44,1.12.44Z"/>
        <path class="cls-3" d="M225.94,411.96c.2,0,.4-.04.6-.11.84-.33,1.25-1.27.92-2.11l-32.07-81.18c-.33-.84-1.28-1.25-2.11-.92-.84.33-1.25,1.27-.92,2.11l32.07,81.18c.25.64.86,1.03,1.51,1.03Z"/>
        <path class="cls-10" d="M226.72,307.94c1.17-6.56-4.18-11.68-14.23-18.47-10.06-6.79-22.91-13.51-29.14-16.37-8.41-3.86-17.02-3.51-27.79,2.03-14.96,7.69-59.99,34.99-59.99,34.99,0,0,67.32,38.01,80.27,36.3,12.95-1.7,45.33-22.76,47.89-30.17,2.56-7.41,2.99-8.32,2.99-8.32Z"/>
        <g class="cls-33">
          <path class="cls-4" d="M226.72,307.94c1.17-6.56-4.18-11.68-14.23-18.47-10.06-6.79-22.91-13.51-29.14-16.37-8.41-3.86-17.02-3.51-27.79,2.03-14.96,7.69-59.99,34.99-59.99,34.99,0,0,67.32,38.01,80.27,36.3,12.95-1.7,45.33-22.76,47.89-30.17,2.56-7.41,2.99-8.32,2.99-8.32Z"/>
        </g>
        <path class="cls-10" d="M169.35,338.43c9.66,8.75,19.77,1.22,35.75-9.15,18.09-11.74,21.63-21.34,21.63-21.34,0,0,0,7.2-1.35,10.57-1.35,3.37-4.27,7.2-17.32,16.19-13.04,9-22.49,13.49-31.26,15.16l-6.92-.96"/>
        <path class="cls-15" d="M205.09,329.28c18.09-11.74,21.63-21.34,21.63-21.34,0,0,0,7.2-1.35,10.57-1.35,3.37-4.27,7.2-17.32,16.19-13.04,9-22.49,13.49-31.26,15.16l-6.92-.96-.54-10.47c9.66,8.75,19.77,1.22,35.75-9.15Z"/>
        <path class="cls-10" d="M99.04,399.22l-4.95,11.42c-.03.1-.05.2-.05.3,0,.07-.01.14-.01.21.03.24.31.56.63.76.72.46,1.92.52,2.68.13.28-.15.46-.33.55-.52,0,0,0-.01,0-.02l.04-.16,4.6-10.71-3.49-1.41Z"/>
        <path class="cls-10" d="M223.73,399.7l4.24,11.19c.03.1.04.19.04.29,0,.06,0,.13,0,.2-.04.23-.33.52-.64.71-.71.41-1.87.41-2.58,0-.26-.15-.43-.34-.5-.53,0,0,0-.01,0-.02l-.03-.15-3.93-10.49,3.41-1.2Z"/>
        <path class="cls-10" d="M159.35,440.3v9.26c0,.28.18.55.55.77.73.42,1.92.42,2.65,0,.37-.21.55-.49.55-.77v-9.26c-1.25-.63-2.5-.63-3.75,0Z"/>
      </g>
      <g>
        <g>
          <path class="cls-25" d="M122.54,268.72c3.83,4.47,38.72-5.57,47.97-6.83,14.91-2.03,27.05-3.51,32.1-1.92,5.06,1.59,7.21,4.17,8.76,10.23,1.83,7.15,2.78,10.79,2.78,10.79,0,0-24.77,9.51-44.3,11.8-19.53,2.29-47.3-24.06-47.3-24.06Z"/>
          <path class="cls-3" d="M116.03,275.27c-3.87,14.74-7.34,31.88,1.61,41.26,6.03,6.32,36.31,22.74,55.85,16.27,19.25-6.37,59.1-35.96,63.1-38.94,4.01-2.99,7.64-5.01,7.25-6.28-5.38-17.84-13.23-19.24-27.8-16.03-17.81,3.92-56.92,19.88-56.92,19.88l-43.1-16.16Z"/>
        </g>
        <g>
          <polygon class="cls-6" points="204.52 180.52 191.08 195.71 169.38 185.42 184.55 164.42 204.52 180.52"/>
          <g>
            <path class="cls-8" d="M221.19,151.66s5.5,7.94,4.91,8.75c-.59.81-4.48,1.61-4.48,1.61l-.43-10.36Z"/>
            <circle class="cls-34" cx="221.15" cy="150.33" r="5.98"/>
            <path class="cls-6" d="M205.92,129.68c10.81,2.02,14.02,6.68,15.43,23.75,1.47,17.83-.23,23.49-2.52,25.95-1.55,1.66-10.34,2.15-14.81,1.03-5.59-1.4-18.25-5.57-24.34-14.41-7.16-10.41-9.3-24.69-2.03-30.73,10.23-8.51,23.87-6.4,28.27-5.57Z"/>
            <path class="cls-8" d="M204.52,180.52c4.65,1.05,11.73.42,13.83-.79-.2.05-3.53.92-7.82-.29-4.43-1.24-7.17-3.16-7.17-3.16l1.17,4.24Z"/>
          </g>
          <g>
            <path class="cls-2" d="M223.35,136.67s-.02.01-.03.02c-3.02,2.08-6.7,2.95-10.32,3.51.29,2.89-.63,5.76-1.53,8.52-.62,1.91-2.87,7.92-5.32,4.62-1.77-2.38-3.38-4.55-6.76-3.97-5.58.96-6.17,8.12-2.55,12.37,3.63,4.26,6.88,2.52,6.88,2.52,0,0,.51,7.69-3.54,13.13,0,0-6.05,3.72-14.55.92-5.36-1.77-13.1-8.53-15.95-13.81-7.85-14.52-7.89-28.44,1.63-32.72.88-6.96,6.27-10.2,12.47-11.77,8.59-2.18,17.51,3.21,25.81-.35,1.75-.75,3.36-1.81,5.15-2.46,1.01-.36,2.2-.57,3.09.01.77.51,1.11,1.46,1.32,2.36.4,1.65.55,3.5-.33,4.96,1.25-.6,2.53-1.21,3.9-1.44,1.37-.22,2.88,0,3.95.89.99.84,1.46,2.15,1.58,3.44.34,3.64-1.89,7.15-4.89,9.24Z"/>
            <path class="cls-2" d="M171.19,134.12l-6.52-3.65c1.01-1.8,3.28-2.45,5.09-1.44,1.8,1.01,2.45,3.28,1.44,5.09Z"/>
          </g>
          <line class="cls-35" x1="206.15" y1="153.34" x2="227.05" y2="149.44"/>
        </g>
        <path class="cls-6" d="M249.86,189.4c-.56-.94-1.81-1.12-2.85-1.49-1.92-.67-3.42-2.2-5.27-3.05-2.06-.94-4.45-.97-6.66-.45-.76.18-1.5.42-2.22.71-1.38.55-2.7,1.26-3.97,2.01-5.3,3.14-9.28,10.22-14.48,13.47-1.94,1.21-3.75,2.31-5.54,3.41l12.44,11.09c2.56-2.08,5.01-4,6.13-4.67,3.06-1.82,6.15-1.86,9.59-2.36,2.39-.35,4.71-1.05,7.01-1.76.81-.25,1.72-.57,2.07-1.35.44-.98-.33-2.16-1.33-2.56-1.07-.42-2.49-.31-3.64-.5-.9-.14-3.3.39-3.83-.51-.28-.47.07-1.06.41-1.49,2.16-2.69,4.89-5.57,8.34-6.38,1.07-.25,2.19-.51,3.04-1.21.85-.7,1.33-1.98.77-2.93Z"/>
        <path class="cls-10" d="M175.47,176.99c-13.21-7.21-25.24-2.58-29.57,6.69-3.92,8.39-12.17,40.84-12.17,40.84,3.96,7.43,41.74-47.53,41.74-47.53Z"/>
        <g>
          <path class="cls-10" d="M173.49,179.6l1.98-2.61c-14.91-7.09-28.27,2.22-40.03,20.52-12.68,19.72-19.33,48.03-19.39,77.91,0,0,2.53,13.43,19.5,20.14,18,7.13,43.11,4.11,50.93-14.55,0,0,.16-18.64,5.83-27.81,3.67-5.94,12.22-19.14,18.58-28.6,5.54-8.24,9.84-26.99-1.73-33.85-3.39-2.01-4.79-2.6-9.41-4.8-10.53,3.48-27.62-2.17-26.26-6.35Z"/>
          <path class="cls-22" d="M173.53,179.67l1.93-2.67c-14.91-7.09-28.27,2.22-40.03,20.52-12.68,19.72-19.33,48.03-19.39,77.91,0,0,2.53,13.43,19.5,20.14,18,7.13,43.11,4.11,50.93-14.55,0,0,.16-18.64,5.83-27.81,3.67-5.94,12.22-19.14,18.58-28.6,5.54-8.24,9.84-26.99-1.73-33.85-3.39-2.01-4.79-2.6-9.41-4.8-10.53,3.48-27.57-2.11-26.22-6.28Z"/>
          <path class="cls-21" d="M215.7,212.65c.76-3.59,1.02-7.37.46-10.86h0c-2.71,6.34-6.52,12.2-11.26,17.2-6.07,6.39-13.56,11.37-19.2,18.15-5.96,7.18-10.25,15.87-15.24,23.71-2,3.15-4.74,9.22-8.46,9.46-4.54.3-8.88-5.24-11.35-9.05-3.95-6.09-7.34-13.69-12.25-19.03-4.29-4.67-10.93-10.65-16.77-7.94h0c-.44,1.55-.85,3.12-1.24,4.71-.39,1.6-.76,3.21-1.09,4.83-.01.06-.03.12-.04.19-.34,1.62-.65,3.25-.93,4.88-.02.09-.03.17-.04.26-.28,1.62-.53,3.24-.75,4.86-.97,6.99-1.48,14.16-1.49,21.4,0,0,2.53,13.43,19.5,20.14,18,7.13,43.11,4.11,50.93-14.55,0,0,.16-18.64,5.83-27.81.57-.92,1.27-2.04,2.05-3.27,0,0,0,0,0-.01.04-.07.09-.14.13-.21.65-1.02,1.35-2.13,2.11-3.31.05-.07.09-.14.14-.22.02-.03.04-.06.06-.09,1.62-2.53,3.43-5.33,5.31-8.22.29-.44.57-.87.86-1.31,1.82-2.78,3.66-5.59,5.43-8.24,0,0,.01-.02.02-.03.6-.9,1.18-1.76,1.75-2.62.24-.36.49-.73.73-1.09,0,0,0,0,0,0,.2-.3.4-.61.59-.94.06-.1.12-.2.18-.3.14-.24.28-.49.42-.74.06-.11.12-.22.18-.34.15-.29.3-.58.45-.88.04-.08.08-.15.11-.23.19-.39.37-.79.55-1.21,0-.02.01-.03.02-.05.01-.02.02-.05.03-.07.16-.37.31-.75.47-1.14.04-.09.07-.18.11-.28.14-.37.27-.74.41-1.11.01-.03.02-.06.03-.09.01-.04.03-.08.04-.12.24-.7.46-1.41.66-2.14,0,0,0-.01,0-.02.2-.73.38-1.47.55-2.22,0,0,0-.01,0-.02,0-.02,0-.04.01-.06Z"/>
        </g>
        <g>
          <path class="cls-6" d="M284.89,230.8c-.93,1.15-2,2.2-3.1,3.2-4.56,4.13-9.89,6.11-16.09,10.14-5.01,3.25-12.73,7.99-19.24,12.05-7.32,4.56-16.14,8.27-20.95,9.68-6.05,1.78-9.43,1.85-13.01-7.84-1.75-4.75-3.14-9.62-4.66-14.46-2.25-7.19-4.47-14.4-6.64-21.61,0,0-8.04-19.83,9.95-29.79,7.83,4.48,10.81,6.29,13.27,15.67,2.94,11.23,7.7,33.38,7.7,33.38,6.36-2.2,12.57-4.92,18.6-7.91,2.28-1.14,5.09-1.92,6.72-3.95,1.11-1.38,2.01-2.91,2.86-4.45.77-1.38,1.32-2.88,2.16-4.21,1.57-2.45,3.83-4.51,5.91-6.51.41-.39.87-.81,1.43-.85.6-.04,1.15.37,1.45.89.66,1.15.05,2.29-.29,3.47-.39,1.35-.77,2.69-1.16,4.04,4.59-2.72,8.49-6.3,11.48-10.76.27-.41.54-.82.91-1.15.37-.32.85-.55,1.34-.49,1.21.15,2.4,2.09,2.46,3.2.06,1.13-.19,2.29.09,3.39.27,1.05.98,1.9,1.3,2.93.32,1,.58,2.19.69,3.24.25,2.43-.61,4.72-1.83,6.79-.4.67-.85,1.31-1.34,1.91Z"/>
          <path class="cls-10" d="M210.08,191.35c6.86,2.77,11.79,5.9,14.92,16.36,3.14,10.52,6.52,27.24,6.52,27.24,0,0,.06,3.51-8.26,8.42-8.32,4.91-16.11,2.17-16.11,2.17l-6.28-20.2s-11.14-27.01,9.22-33.99Z"/>
        </g>
      </g>
      <g>
        <path class="cls-10" d="M169.88,348.91c-5.5-.28-9.81-4.32-22.9-9.77-24.16-10.07-42.28-18.12-49.18-30.78-6.9-12.66-11.79-49.18-10.07-65,.23-2.1.64-3.82,1.18-5.24l-1.7-.25,4.4-3.75h0c4.51-3.68,11.86-.39,17.4,2.62,15.82,8.61,28.19,16.97,37.97,47.17,7.36,22.72,12.21,43.44,22.36,54.52"/>
        <path class="cls-26" d="M88.92,238.12l-1.7-.25,4.4-3.75h0c4.51-3.68,11.86-.39,17.4,2.62,15.82,8.61,28.19,16.97,37.97,47.17,7.36,22.72,12.21,43.44,22.36,54.52l.54,10.47c-5.5-.28-9.81-4.32-22.9-9.77-24.16-10.07-42.28-18.12-49.18-30.78-6.9-12.66-11.79-49.18-10.07-65,.23-2.1.64-3.82,1.18-5.24Z"/>
        <path class="cls-10" d="M104.44,240.64c15.82,8.61,28.19,16.97,37.97,47.17,9.78,30.2,15.13,56.88,34.4,62.06,0,0-8.71,3.46-35.41-7.83-8.5-3.59-18.81-10.14-25.58-13.95-13.27-7.45-21.32-13.55-22.59-15.83-7.01-12.59-11.79-49.18-10.07-65,1.73-15.82,13.36-10.93,21.28-6.62Z"/>
      </g>
    </g>
  </g>
  <g id="Speech_Bubble" data-name="Speech Bubble">
    <g id="Speech_Bubble-2" data-name="Speech Bubble">
      <g>
        <path class="cls-10" d="M193.34,106.69l-4.37-8.21,3.52-10.15v-6.21l-10.76,6.21v6.21l4.62,8.01c.08.14.19.22.31.28h0s6.67,3.86,6.67,3.86Z"/>
        <path class="cls-27" d="M193.34,106.69l-4.37-8.21,3.52-10.15v-6.21l-10.76,6.21v6.21l4.62,8.01c.08.14.19.22.31.28h0s6.67,3.86,6.67,3.86Z"/>
        <path class="cls-10" d="M219.03,32.75c0-2.06-1.44-4.56-3.22-5.59l-2.63-1.52c-1.78-1.03-4.67-1.03-6.45,0l-40.27,23.29c-1.78,1.03-3.23,3.53-3.23,5.59v44.31c0,2.06,1.44,4.56,3.23,5.59l2.63,1.52c1.78,1.03,4.67,1.03,6.45,0l12.95-7.48,4.62,7.99c.29.51,1.05.44,1.25-.12l4.88-14.08,16.58-9.6c1.78-1.03,3.22-3.53,3.22-5.59v-44.31Z"/>
        <path class="cls-27" d="M163.23,98.84c0,2.06,1.44,4.56,3.23,5.59l2.63,1.52c1.61.93,4.12,1.01,5.9.26-1.52.57-2.67-.28-2.67-2.12v-44.31c0-1.03.36-2.17.94-3.18l-9.08-5.24c-.58,1.01-.94,2.15-.94,3.18v44.31Z"/>
        <path class="cls-23" d="M218.92,31.83c-.38-1.37-1.62-1.81-3.11-.95l-40.28,23.3c-.89.51-1.7,1.38-2.27,2.41l-9.07-5.24c.59-1.02,1.38-1.9,2.27-2.41l40.27-23.3c1.79-1.02,4.68-1.02,6.45,0l2.63,1.52c1.52.87,2.8,2.83,3.11,4.66Z"/>
      </g>
      <g id="_" data-name="&amp;lt;/&amp;gt;">
        <path class="cls-19" d="M178.23,77.16c0-.36.06-.67.17-.92.11-.25.27-.54.47-.86l8.76-14.16c.06-.08.11-.13.14-.17.04-.03.07-.06.1-.07.13-.08.24-.07.33.01.09.08.13.23.13.43v5.46c0,.45-.08.83-.25,1.14-.17.31-.32.56-.45.75l-4.51,6.89,4.51,2.08c.13.04.28.11.45.21.17.11.25.38.25.83v3.88c0,.2-.04.4-.13.58-.09.19-.2.32-.33.39-.03.02-.06.03-.1.04-.04.01-.08,0-.14,0l-8.76-4.04c-.2-.08-.36-.19-.47-.32-.11-.13-.17-.37-.17-.73v-1.42Z"/>
        <path class="cls-19" d="M197.31,55.3c.07-.29.18-.58.33-.88.15-.3.36-.53.64-.69l2.93-1.69c.13-.08.24-.07.34.02.09.09.14.24.14.44,0,.09-.01.2-.04.33l-7.4,31.54c-.06.26-.16.54-.31.85-.15.31-.36.55-.66.72l-2.87,1.66c-.13.08-.24.07-.34-.02-.1-.09-.14-.24-.14-.44,0-.09.01-.2.05-.33l7.33-31.5Z"/>
        <path class="cls-19" d="M213.4,60.4c0,.36-.06.67-.16.92-.11.25-.27.54-.47.86l-8.76,14.15c-.06.08-.11.13-.14.17-.04.03-.07.06-.1.07-.13.08-.24.07-.33-.01-.09-.08-.13-.23-.13-.43v-5.46c0-.45.08-.82.25-1.12s.32-.54.45-.73l3.83-5.92-3.83-1.46c-.13-.04-.28-.11-.45-.23-.17-.12-.25-.4-.25-.85v-5.46c0-.2.04-.4.13-.58.09-.18.2-.32.33-.39.03-.02.06-.03.1-.04.04,0,.08,0,.14,0l8.76,4.04c.2.08.36.19.47.32.11.13.16.37.16.73v1.42Z"/>
      </g>
    </g>
  </g>
</svg>